<?xml version="1.0" encoding="utf-8"?>
<!-- Generator: Adobe Illustrator 16.0.3, SVG Export Plug-In . SVG Version: 6.00 Build 0)  -->
<!DOCTYPE svg PUBLIC "-//W3C//DTD SVG 1.1//EN" "http://www.w3.org/Graphics/SVG/1.1/DTD/svg11.dtd">
<svg version="1.1" id="Layer_1" xmlns="http://www.w3.org/2000/svg" xmlns:xlink="http://www.w3.org/1999/xlink" x="0px" y="0px"
	 width="32px" height="32px" viewBox="0 0 32 32" enable-background="new 0 0 32 32" xml:space="preserve">
<g>
	<path fill="#41C363" d="M25.104,14.947c-3.422-0.006-6.186-2.793-6.178-6.223c0.01-3.418,2.801-6.183,6.231-6.168
		c3.401,0.013,6.163,2.796,6.158,6.204C31.313,12.184,28.53,14.954,25.104,14.947z M24.898,5.821
		c-1.204,0.026-2.521,0.528-3.641,1.541c-0.275,0.25-0.345,0.57-0.175,0.779c0.181,0.221,0.47,0.192,0.775-0.074
		c0.059-0.051,0.114-0.104,0.176-0.151c1.283-1.041,2.729-1.398,4.349-1.039c0.918,0.205,1.698,0.659,2.373,1.31
		c0.217,0.209,0.469,0.256,0.68,0.019c0.195-0.22,0.164-0.474-0.047-0.69c-0.053-0.057-0.109-0.109-0.166-0.16
		C28.08,6.323,26.733,5.823,24.898,5.821z M25.236,8.044c-1.031,0.001-2.029,0.382-2.751,1.05c-0.298,0.276-0.36,0.559-0.144,0.766
		c0.258,0.248,0.502,0.152,0.75-0.057c1.328-1.133,3.021-1.121,4.317,0.021c0.313,0.273,0.577,0.3,0.771,0.057
		c0.229-0.289,0.096-0.523-0.139-0.738C27.248,8.415,26.313,8.049,25.236,8.044z M25.242,10.23c-0.594,0.02-1.13,0.203-1.581,0.605
		c-0.233,0.209-0.313,0.457-0.092,0.707c0.209,0.232,0.444,0.188,0.687,0.007c0.711-0.532,1.258-0.528,1.955,0.011
		c0.234,0.182,0.475,0.233,0.688,0.008c0.229-0.243,0.155-0.493-0.075-0.707C26.379,10.449,25.846,10.259,25.242,10.23z"/>
	<path fill="#41C363" d="M11.123,18.843c0,3.778,0,7.541,0,11.332c-2.686,0-5.373,0-8.088,0c0-3.765,0-7.539,0-11.332
		C5.729,18.843,8.415,18.843,11.123,18.843z M9.719,29.104c0-3.08,0-5.843,0-8.883c-1.992,0-3.352,0-5.313,0c0,3.07,0,5.824,0,8.883
		C6.383,29.104,7.734,29.104,9.719,29.104z"/>
	<path fill="#41C363" stroke="#41C363" stroke-width="0.6" stroke-miterlimit="10" d="M26.004,21.461c0,1.342,0.004,2.684,0,4.025
		c-0.009,2.666-2.043,4.707-4.703,4.718c-1.137,0.004-3.271,0.001-4.406,0c-0.451,0-0.704-0.188-0.715-0.526
		c-0.012-0.35,0.252-0.557,0.724-0.557c1.121-0.002,3.244,0.002,4.366-0.001c2.096-0.006,3.646-1.552,3.65-3.642
		c0.004-2.735,0-3.471,0-6.207c0-0.115-0.01-0.233,0.006-0.348c0.045-0.309,0.226-0.501,0.541-0.497
		c0.313,0.005,0.506,0.194,0.529,0.507c0.023,0.309,0.008,0.618,0.008,0.928C26.004,21.063,26.004,20.261,26.004,21.461z"/>
	<path fill="#41C363" stroke="#41C363" stroke-width="0.6" stroke-miterlimit="10" d="M9.721,7.893c1.445,0,3.891,0.004,5.336-0.002
		c0.283,0,0.516,0.074,0.629,0.349c0.152,0.36-0.107,0.722-0.535,0.735c-0.465,0.014-0.93,0.004-1.395,0.004
		c-2.334,0-5.67-0.002-8.006,0c-1.621,0-2.654,1.039-2.656,2.664c-0.002,0.349,0.011,0.697-0.006,1.045
		c-0.015,0.317-0.262,0.555-0.55,0.531c-0.312-0.025-0.521-0.205-0.521-0.518c-0.002-0.631-0.03-1.271,0.068-1.891
		C2.352,9.143,3.811,7.926,5.5,7.895c0.025,0,0.051-0.002,0.076-0.002C6.961,7.893,8.342,7.893,9.721,7.893z"/>
	<path fill="#41C363" stroke="#41C363" stroke-width="0.6" stroke-miterlimit="10" d="M16.836,17.96
		c-0.104-0.597-0.041-1.104,0.49-1.533c0.498-0.401,0.915-0.903,1.416-1.411c0.389,0.396,0.756,0.768,1.123,1.141
		c0.072,0.074,0.139,0.158,0.221,0.218c0.563,0.394,0.723,0.931,0.545,1.617c-0.463-0.483-0.927-0.964-1.389-1.446
		c-0.033,0.025-0.066,0.051-0.1,0.074c0,1.051,0,2.102,0,3.183c-0.264,0-0.5,0-0.777,0c0-1.054,0-2.114,0-3.278
		c-0.516,0.561-0.961,1.049-1.406,1.537C16.918,18.027,16.877,17.994,16.836,17.96z"/>
	<path fill="#41C363" stroke="#41C363" stroke-width="0.6" stroke-miterlimit="10" d="M20.646,23.504
		c0.105,0.594,0.047,1.104-0.484,1.532c-0.497,0.401-0.91,0.909-1.402,1.412c-0.313-0.314-0.604-0.603-0.893-0.892
		c-0.154-0.154-0.292-0.334-0.469-0.459c-0.557-0.402-0.723-0.935-0.553-1.597c0.457,0.467,0.926,0.944,1.393,1.421
		c0.037-0.023,0.076-0.049,0.113-0.072c0-1.061,0-2.121,0-3.199c0.27,0,0.496,0,0.764,0c0,1.063,0,2.125,0,3.248
		c0.502-0.53,0.954-1.01,1.408-1.49C20.564,23.439,20.604,23.471,20.646,23.504z"/>
	<g>
		<path fill="#3D3D3D" d="M0,15.803c2.063,0,4.098,0,6.159,0c0-1.932,0-2.462,0-4.396c0.365,0,1.442,0,1.824,0
			c0,1.909,0,2.448,0,4.39c2.075,0,4.108,0,6.173,0c0,4.678,0,9.994,0,14.672c-4.457,0-9.662,0-14.156,0C0,25.825,0,20.507,0,15.803
			z M7.828,29.1c1.727,0,3.239,0,4.916,0c0-3.951,0-7.877,0-11.801c-3.771,0-7.518,0-11.251,0c0,3.954,0,7.881,0,11.801
			c1.702,0,3.187,0,4.897,0c0-3.07,0-5.834,0-8.881c0.381,0,1.07,0,1.438,0C7.828,23.287,7.828,26.042,7.828,29.1z"/>
	</g>
</g>
</svg>
