<?xml version="1.0" encoding="utf-8"?>
<!-- Generator: Adobe Illustrator 16.0.3, SVG Export Plug-In . SVG Version: 6.00 Build 0)  -->
<!DOCTYPE svg PUBLIC "-//W3C//DTD SVG 1.1//EN" "http://www.w3.org/Graphics/SVG/1.1/DTD/svg11.dtd">
<svg version="1.1" id="Layer_1" xmlns="http://www.w3.org/2000/svg" xmlns:xlink="http://www.w3.org/1999/xlink" x="0px" y="0px"
	 width="432.25px" height="68px" viewBox="0 0 432.25 68" enable-background="new 0 0 432.25 68" xml:space="preserve">
<rect fill="#8B7100" fill-opacity="0" width="34" height="34"/>
<rect x="34" fill="#8B7100" fill-opacity="0" width="34" height="34"/>
<rect x="67.984" fill="#8B7100" fill-opacity="0" width="34" height="34"/>
<rect x="101.984" fill="#8B7100" fill-opacity="0" width="34" height="34"/>
<rect x="135.984" fill="#8B7100" fill-opacity="0" width="34" height="34"/>
<rect x="169.965" fill="#8B7100" fill-opacity="0" width="34" height="34"/>
<rect x="203.98" fill="#8B7100" fill-opacity="0" width="34" height="34"/>
<rect x="238.001" fill="#8B7100" fill-opacity="0" width="33.998" height="34"/>
<g>
	<g>
		<path fill="none" stroke="#FFFFFF" stroke-width="1.5" d="M9.54,23.587c-1.653,0.006-3.306,0.01-4.958,0.016
			c-0.689,0.005-0.832-0.138-0.888-0.82c-0.189-2.267,0.176-4.446,1.173-6.488c1.929-3.941,5.059-6.406,9.382-7.178
			c5.71-1.018,11.144,1.767,13.75,6.936c1.051,2.083,1.474,4.302,1.293,6.634c-0.008,0.104-0.008,0.209-0.016,0.314
			c-0.027,0.35-0.258,0.596-0.607,0.596c-1.805,0.001-3.043-0.004-4.849-0.014"/>
		<path fill="none" stroke="#FFFFFF" stroke-width="1.5" d="M16.983,26.053c-1.358-0.031-2.471-0.758-2.99-2.008
			c-0.589-1.415-0.934-2.903-1.223-4.403c-0.202-1.049-0.364-2.107-0.528-3.162c-0.025-0.161-0.01-0.349,0.043-0.503
			c0.096-0.273,0.43-0.413,0.714-0.321c0.125,0.042,0.25,0.104,0.355,0.181c1.832,1.349,3.623,2.748,5.233,4.362
			c0.276,0.275,0.535,0.573,0.797,0.867c1.484,1.66,0.684,4.202-1.504,4.829C17.588,25.975,17.283,26.001,16.983,26.053z"/>
		<path fill="none" stroke="#41C363" stroke-width="1.5" d="M21.661,9.969c2.673,1.174,4.924,3.277,6.338,6.084
			c1.051,2.083,1.474,4.302,1.293,6.634c-0.007,0.104-0.007,0.209-0.016,0.314c-0.027,0.35-0.258,0.596-0.607,0.596
			c-1.804,0.002-3.043-0.004-4.849-0.014"/>
	</g>
</g>
<rect y="33.994" fill="#8B7100" fill-opacity="0" width="34" height="34.006"/>
<g>
	<g>
		<path fill="none" stroke="#FFFFFF" stroke-width="1.5" d="M9.54,57.586c-1.653,0.006-3.306,0.01-4.958,0.016
			c-0.689,0.006-0.832-0.138-0.888-0.816c-0.189-2.27,0.176-4.446,1.173-6.489c1.929-3.938,5.059-6.403,9.382-7.179
			c5.71-1.021,11.144,1.768,13.75,6.938c1.051,2.082,1.474,4.305,1.293,6.637c-0.008,0.104-0.008,0.209-0.016,0.313
			c-0.027,0.353-0.258,0.599-0.607,0.599c-1.805,0-3.043-0.004-4.849-0.016"/>
		<path fill="none" stroke="#FFFFFF" stroke-width="1.5" d="M16.983,60.052c-1.358-0.03-2.471-0.758-2.99-2.008
			c-0.589-1.416-0.934-2.903-1.223-4.403c-0.202-1.05-0.364-2.104-0.528-3.162c-0.025-0.162-0.01-0.351,0.043-0.504
			c0.096-0.271,0.43-0.412,0.714-0.32c0.125,0.041,0.25,0.104,0.355,0.184c1.832,1.354,3.623,2.749,5.233,4.363
			c0.276,0.271,0.535,0.57,0.797,0.863c1.484,1.66,0.684,4.203-1.504,4.83C17.588,59.973,17.283,60,16.983,60.052z"/>
		<path fill="none" stroke="#000000" stroke-width="1.5" d="M21.661,43.965c2.673,1.174,4.924,3.277,6.338,6.085
			c1.051,2.083,1.474,4.304,1.293,6.636c-0.007,0.104-0.007,0.209-0.016,0.313c-0.027,0.353-0.258,0.599-0.607,0.599
			c-1.804,0.002-3.043-0.006-4.849-0.016"/>
	</g>
</g>
<g>
	
		<line fill="none" stroke="#FFFFFF" stroke-width="1.5" stroke-miterlimit="10" x1="118.069" y1="26.808" x2="118.069" y2="29.397"/>
	
		<line fill="none" stroke="#FFFFFF" stroke-width="1.5" stroke-miterlimit="10" x1="115.819" y1="26.851" x2="125.025" y2="26.851"/>
	<g>
		<path fill="none" stroke="#FFFFFF" stroke-width="1.5" stroke-miterlimit="10" d="M128.774,29.167
			c-0.343,0.169-0.729,0.264-1.135,0.264c-1.42,0-2.57-1.154-2.57-2.573s1.152-2.572,2.57-2.572c0.019,0,0.037,0,0.056,0"/>
	</g>
	
		<line fill="none" stroke="#FFFFFF" stroke-width="1.5" stroke-miterlimit="10" x1="122.069" y1="26.808" x2="122.069" y2="31.397"/>
	<g>
		<path fill="none" stroke="#41C363" stroke-width="1.5" stroke-miterlimit="10" d="M127.639,24.284
			c1.418,0,2.572,1.153,2.572,2.572c0,1.025-0.604,1.913-1.474,2.326"/>
	</g>
</g>
<g>
	<path fill="none" stroke="#FFFFFF" stroke-width="1.5" stroke-miterlimit="10" d="M122.01,24.349c0-0.195-0.01-0.388-0.027-0.579
		c-0.291-3.132-2.928-5.581-6.131-5.581"/>
	<circle fill="none" stroke="#FFFFFF" stroke-width="1.5" stroke-miterlimit="10" cx="115.854" cy="8.992" r="6.158"/>
	<path fill="none" stroke="#41C363" stroke-width="1.5" stroke-miterlimit="10" d="M115.854,18.188c-3.399,0-6.16,2.756-6.16,6.16"
		/>
	<path fill="none" stroke="#FFFFFF" stroke-width="1.5" stroke-miterlimit="10" d="M109.695,24.349v6.43h5.083"/>
	<path fill="none" stroke="#FFFFFF" stroke-width="1.5" stroke-miterlimit="10" d="M122.01,24.349"/>
	<path fill="none" stroke="#FFFFFF" stroke-width="1.5" stroke-miterlimit="10" d="M111.928,30.777"/>
</g>
<rect x="101.984" y="34.016" fill="#8B7100" fill-opacity="0" width="34" height="34.001"/>
<g>
	
		<line fill="none" stroke="#FFFFFF" stroke-width="1.5" stroke-miterlimit="10" x1="118.069" y1="60.824" x2="118.069" y2="63.414"/>
	
		<line fill="none" stroke="#FFFFFF" stroke-width="1.5" stroke-miterlimit="10" x1="115.819" y1="60.867" x2="125.025" y2="60.867"/>
	<g>
		<path fill="none" stroke="#FFFFFF" stroke-width="1.5" stroke-miterlimit="10" d="M128.774,63.184
			c-0.343,0.168-0.729,0.268-1.135,0.268c-1.42,0-2.57-1.154-2.57-2.573s1.152-2.569,2.57-2.569c0.019,0,0.037,0,0.056,0"/>
	</g>
	
		<line fill="none" stroke="#FFFFFF" stroke-width="1.5" stroke-miterlimit="10" x1="122.069" y1="60.824" x2="122.069" y2="65.414"/>
	<g>
		<path fill="none" stroke="#000000" stroke-width="1.5" stroke-miterlimit="10" d="M127.639,58.3c1.418,0,2.572,1.153,2.572,2.572
			c0,1.024-0.604,1.913-1.474,2.326"/>
	</g>
</g>
<g>
	<path fill="none" stroke="#FFFFFF" stroke-width="1.5" stroke-miterlimit="10" d="M122.01,58.365c0-0.195-0.01-0.389-0.027-0.579
		c-0.291-3.132-2.928-5.581-6.131-5.581"/>
	<circle fill="none" stroke="#FFFFFF" stroke-width="1.5" stroke-miterlimit="10" cx="115.854" cy="43.009" r="6.158"/>
	<path fill="none" stroke="#000000" stroke-width="1.5" stroke-miterlimit="10" d="M115.854,52.205c-3.399,0-6.16,2.756-6.16,6.16"
		/>
	<path fill="none" stroke="#FFFFFF" stroke-width="1.5" stroke-miterlimit="10" d="M109.695,58.365v6.43h5.083"/>
	<path fill="none" stroke="#FFFFFF" stroke-width="1.5" stroke-miterlimit="10" d="M122.01,58.365"/>
	<path fill="none" stroke="#FFFFFF" stroke-width="1.5" stroke-miterlimit="10" d="M111.928,64.794"/>
</g>
<g>
	<path fill="none" stroke="#FFFFFF" stroke-width="1.5" stroke-miterlimit="10" d="M56.644,23.17c0-3.404-2.759-6.16-6.158-6.16"/>
	<circle fill="none" stroke="#FFFFFF" stroke-width="1.5" stroke-miterlimit="10" cx="50.488" cy="7.814" r="6.158"/>
	<path fill="none" stroke="#41C363" stroke-width="1.5" stroke-miterlimit="10" d="M50.488,17.01c-3.399,0-6.16,2.756-6.16,6.16"/>
	<path fill="none" stroke="#FFFFFF" stroke-width="1.5" stroke-miterlimit="10" d="M44.329,23.17v6.43h10.083"/>
	<path fill="none" stroke="#FFFFFF" stroke-width="1.5" stroke-miterlimit="10" d="M46.562,29.599h10.083v-6.43"/>
</g>
<rect x="34" y="34.016" fill="#8B7100" fill-opacity="0" width="34" height="34.001"/>
<g>
	<path fill="none" stroke="#FFFFFF" stroke-width="1.5" stroke-miterlimit="10" d="M56.644,57.188c0-3.401-2.759-6.16-6.158-6.16"/>
	<circle fill="none" stroke="#FFFFFF" stroke-width="1.5" stroke-miterlimit="10" cx="50.488" cy="41.83" r="6.158"/>
	<path fill="none" stroke="#000000" stroke-width="1.5" stroke-miterlimit="10" d="M50.488,51.025c-3.399,0-6.16,2.757-6.16,6.16"/>
	<path fill="none" stroke="#FFFFFF" stroke-width="1.5" stroke-miterlimit="10" d="M44.329,57.188v6.433h10.083"/>
	<path fill="none" stroke="#FFFFFF" stroke-width="1.5" stroke-miterlimit="10" d="M46.562,63.615h10.083v-6.43"/>
</g>
<g>
	<g>
		<g>
			<path fill="none" stroke="#FFFFFF" stroke-width="1.5" stroke-miterlimit="10" d="M147.971,23.104
				c-0.875,0.397-1.645,0.734-2.324,1.031c-3.012,1.313-4.137,1.81-4.137,3.438c0,1.227,1.119,2.344,2.344,2.344h8.039"/>
		</g>
	</g>
	<g>
		<g>
			<path fill="none" stroke="#FFFFFF" stroke-width="1.5" stroke-miterlimit="10" d="M159.635,16.273
				c0.238,0.309,0.584,0.524,1.002,0.524h0.646c0.704,0,1.271-0.572,1.271-1.277v-2.558c0.002-0.704-0.57-1.275-1.271-1.275h-0.644
				c0-4.223-3.426-8.278-7.646-8.278c-4.22,0-7.646,4.056-7.646,8.278h-0.646c-0.703,0-1.271,0.571-1.271,1.274v2.56
				c0,0.705,0.564,1.275,1.271,1.275h0.646c0.377,0,0.705-0.173,0.938-0.43c0.043,0.055,0.075,0.109,0.118,0.161 M146.389,14.075
				c0-0.032,0-0.063,0-0.092c0-4.723,2.965-7.933,6.604-7.933c3.646,0,6.606,3.21,6.606,7.933c0,4.722-2.971,9.193-6.608,9.193"/>
		</g>
	</g>
	<path fill="none" stroke="#FFFFFF" stroke-width="1.5" stroke-miterlimit="10" d="M151.094,18.697
		c-2.238,0-3.996-1.528-4.797-2.167"/>
	<path fill="#FFFFFF" d="M153.659,18.581c0,0.782-0.634,1.411-1.41,1.411c-0.781,0-1.414-0.629-1.414-1.411
		c0-0.779,0.633-1.408,1.414-1.408C153.025,17.173,153.659,17.802,153.659,18.581z"/>
	<g>
		<g>
			<path fill="none" stroke="#41C363" stroke-width="1.5" stroke-miterlimit="10" d="M151.861,29.918h10.248
				c1.229,0,2.347-1.118,2.347-2.344c0.015-1.629-1.11-2.123-4.125-3.438c-0.683-0.297-1.449-0.631-2.322-1.031l-0.043-0.02"/>
		</g>
	</g>
	<path fill="none" stroke="#41C363" stroke-width="1.5" stroke-miterlimit="10" d="M152.988,23.179
		c-2.411,0-4.522-1.691-5.676-4.208c-0.348-0.649-0.688-2.078-0.688-2.078c-0.146-0.727-0.237-2.119-0.237-2.908"/>
</g>
<rect x="135.984" fill="#8B7100" fill-opacity="0" width="34" height="34"/>
<g>
	<g>
		<g>
			<path fill="none" stroke="#FFFFFF" stroke-width="1.5" stroke-miterlimit="10" d="M147.971,23.104
				c-0.875,0.397-1.645,0.734-2.324,1.031c-3.012,1.313-4.137,1.81-4.137,3.438c0,1.227,1.119,2.344,2.344,2.344h8.039"/>
		</g>
	</g>
	<g>
		<g>
			<path fill="none" stroke="#FFFFFF" stroke-width="1.5" stroke-miterlimit="10" d="M159.635,16.273
				c0.238,0.309,0.584,0.524,1.002,0.524h0.646c0.704,0,1.271-0.572,1.271-1.277v-2.558c0.002-0.704-0.57-1.275-1.271-1.275h-0.644
				c0-4.223-3.426-8.278-7.646-8.278c-4.22,0-7.646,4.056-7.646,8.278h-0.646c-0.703,0-1.271,0.571-1.271,1.274v2.56
				c0,0.705,0.564,1.275,1.271,1.275h0.646c0.377,0,0.705-0.173,0.938-0.43c0.043,0.055,0.075,0.109,0.118,0.161 M146.389,14.075
				c0-0.032,0-0.063,0-0.092c0-4.723,2.965-7.933,6.604-7.933c3.646,0,6.606,3.21,6.606,7.933c0,4.722-2.971,9.193-6.608,9.193"/>
		</g>
	</g>
	<path fill="none" stroke="#FFFFFF" stroke-width="1.5" stroke-miterlimit="10" d="M151.094,18.697
		c-2.238,0-3.996-1.528-4.797-2.167"/>
	<path fill="#FFFFFF" d="M153.659,18.581c0,0.782-0.634,1.411-1.41,1.411c-0.781,0-1.414-0.629-1.414-1.411
		c0-0.779,0.633-1.408,1.414-1.408C153.025,17.173,153.659,17.802,153.659,18.581z"/>
	<g>
		<g>
			<path fill="none" stroke="#41C363" stroke-width="1.5" stroke-miterlimit="10" d="M151.861,29.918h10.248
				c1.229,0,2.347-1.118,2.347-2.344c0.015-1.629-1.11-2.123-4.125-3.438c-0.683-0.297-1.449-0.631-2.322-1.031l-0.043-0.02"/>
		</g>
	</g>
	<path fill="none" stroke="#41C363" stroke-width="1.5" stroke-miterlimit="10" d="M152.988,23.179
		c-2.411,0-4.522-1.691-5.676-4.208c-0.348-0.649-0.688-2.078-0.688-2.078c-0.146-0.727-0.237-2.119-0.237-2.908"/>
</g>
<rect x="135.984" y="34.016" fill="#8B7100" fill-opacity="0" width="34" height="34.001"/>
<g>
	<g>
		<g>
			<path fill="none" stroke="#FFFFFF" stroke-width="1.5" stroke-miterlimit="10" d="M147.971,57.121
				c-0.875,0.396-1.645,0.734-2.324,1.031c-3.012,1.313-4.137,1.81-4.137,3.438c0,1.227,1.119,2.344,2.344,2.344h8.039"/>
		</g>
	</g>
	<g>
		<g>
			<path fill="none" stroke="#FFFFFF" stroke-width="1.5" stroke-miterlimit="10" d="M159.635,50.29
				c0.238,0.31,0.584,0.522,1.002,0.522h0.646c0.704,0,1.271-0.571,1.271-1.276v-2.558c0.002-0.705-0.57-1.275-1.271-1.275h-0.644
				c0-4.223-3.426-8.277-7.646-8.277c-4.22,0-7.646,4.057-7.646,8.277h-0.646c-0.703,0-1.271,0.57-1.271,1.273v2.561
				c0,0.705,0.564,1.275,1.271,1.275h0.646c0.377,0,0.705-0.174,0.938-0.434c0.043,0.059,0.075,0.107,0.118,0.161 M146.389,48.092
				c0-0.031,0-0.063,0-0.092c0-4.725,2.965-7.934,6.604-7.934c3.646,0,6.606,3.209,6.606,7.934c0,4.723-2.971,9.193-6.608,9.193"/>
		</g>
	</g>
	<path fill="none" stroke="#FFFFFF" stroke-width="1.5" stroke-miterlimit="10" d="M151.094,52.714
		c-2.238,0-3.996-1.528-4.797-2.167"/>
	<path fill="#FFFFFF" d="M153.659,52.598c0,0.782-0.634,1.411-1.41,1.411c-0.781,0-1.414-0.629-1.414-1.411
		c0-0.779,0.633-1.408,1.414-1.408C153.025,51.189,153.659,51.818,153.659,52.598z"/>
	<g>
		<g>
			<path fill="none" stroke="#000000" stroke-width="1.5" stroke-miterlimit="10" d="M151.861,63.936h10.248
				c1.229,0,2.347-1.119,2.347-2.345c0.015-1.629-1.11-2.123-4.125-3.438c-0.683-0.297-1.449-0.631-2.322-1.027l-0.043-0.021"/>
		</g>
	</g>
	<path fill="none" stroke="#000000" stroke-width="1.5" stroke-miterlimit="10" d="M152.988,57.195
		c-2.411,0-4.522-1.691-5.676-4.209c-0.348-0.648-0.688-2.078-0.688-2.078c-0.146-0.727-0.237-2.118-0.237-2.907"/>
</g>
<line fill="none" stroke="#FFFFFF" stroke-width="2" stroke-linecap="round" stroke-linejoin="round" stroke-miterlimit="10" x1="73" y1="10.069" x2="85.177" y2="3.305"/>
<line fill="none" stroke="#FFFFFF" stroke-width="1.5" stroke-linecap="round" stroke-linejoin="round" stroke-miterlimit="10" x1="75.387" y1="8.909" x2="75.387" y2="24.344"/>
<line fill="none" stroke="#FFFFFF" stroke-width="2" stroke-linecap="round" stroke-linejoin="round" stroke-miterlimit="10" x1="97.264" y1="10.069" x2="85.087" y2="3.305"/>
<line fill="none" stroke="#FFFFFF" stroke-width="1.5" stroke-linecap="round" stroke-linejoin="round" stroke-miterlimit="10" x1="94.788" y1="8.909" x2="94.788" y2="24.344"/>
<g>
	<g>
		<g>
			<path fill="none" stroke="#41C363" stroke-width="1.5" stroke-miterlimit="10" d="M85.648,17.964v-0.66
				c0-1.82,1.479-3.299,3.3-3.299h0.66v0.66c0,1.819-1.48,3.299-3.299,3.299H85.648z M84.329,17.304v0.66h-0.66
				c-1.819,0-3.299-1.48-3.299-3.299v-0.66h0.661C82.848,14.005,84.329,15.484,84.329,17.304z"/>
		</g>
	</g>
	
		<line fill="none" stroke="#41C363" stroke-width="1.5" stroke-linecap="round" stroke-linejoin="round" stroke-miterlimit="10" x1="84.989" y1="18.274" x2="84.989" y2="24.379"/>
</g>
<path fill="none" stroke="#FFFFFF" stroke-width="1.5" stroke-linecap="round" stroke-linejoin="round" stroke-miterlimit="10" d="
	M97.633,27.17L97.633,27.17c0-1.393-1.257-2.521-2.809-2.521H74.898c-1.552,0-2.81,1.128-2.81,2.521v2.26h25.544L97.633,27.17
	L97.633,27.17z"/>
<rect x="67.984" y="34.016" fill="#8B7100" fill-opacity="0" width="34" height="34.001"/>
<line fill="none" stroke="#FFFFFF" stroke-width="2" stroke-linecap="round" stroke-linejoin="round" stroke-miterlimit="10" x1="73" y1="44.086" x2="85.177" y2="37.32"/>
<line fill="none" stroke="#FFFFFF" stroke-width="1.5" stroke-linecap="round" stroke-linejoin="round" stroke-miterlimit="10" x1="75.387" y1="42.926" x2="75.387" y2="58.359"/>
<line fill="none" stroke="#FFFFFF" stroke-width="2" stroke-linecap="round" stroke-linejoin="round" stroke-miterlimit="10" x1="97.264" y1="44.086" x2="85.087" y2="37.32"/>
<line fill="none" stroke="#FFFFFF" stroke-width="1.5" stroke-linecap="round" stroke-linejoin="round" stroke-miterlimit="10" x1="94.788" y1="42.926" x2="94.788" y2="58.359"/>
<g>
	<g>
		<g>
			<path fill="none" stroke="#000000" stroke-width="1.5" stroke-miterlimit="10" d="M85.648,51.98v-0.66
				c0-1.819,1.479-3.299,3.3-3.299h0.66v0.66c0,1.814-1.48,3.299-3.299,3.299H85.648z M84.329,51.32v0.66h-0.66
				c-1.819,0-3.299-1.48-3.299-3.299v-0.66h0.661C82.848,48.021,84.329,49.501,84.329,51.32z"/>
		</g>
	</g>
	
		<line fill="none" stroke="#000000" stroke-width="1.5" stroke-linecap="round" stroke-linejoin="round" stroke-miterlimit="10" x1="84.989" y1="52.291" x2="84.989" y2="58.396"/>
</g>
<path fill="none" stroke="#FFFFFF" stroke-width="1.5" stroke-linecap="round" stroke-linejoin="round" stroke-miterlimit="10" d="
	M97.633,61.188L97.633,61.188c0-1.394-1.257-2.521-2.809-2.521H74.898c-1.552,0-2.81,1.128-2.81,2.521v2.264h25.544L97.633,61.188
	L97.633,61.188z"/>
<g>
	<g>
		<path fill="none" stroke="#FFFFFF" stroke-width="1.5" stroke-linecap="round" stroke-miterlimit="10" d="M263.55,14.053
			c-2.397,0.006-4.796,0.004-7.198,0.004c-2.408,0-4.822,0.002-7.229,0"/>
		<path fill="none" stroke="#41C363" stroke-width="1.5" stroke-miterlimit="10" d="M259.173,21.295c0-1.499,1.177-2.697,2.67-2.703
			c1.474-0.005,2.716,1.217,2.72,2.691c0,1.443-1.246,2.724-2.688,2.729C260.417,24.025,259.186,22.788,259.173,21.295z"/>
		<path fill="none" stroke="#FFFFFF" stroke-width="1.5" stroke-linecap="round" stroke-miterlimit="10" d="M255.76,9.469
			c-2.398,0.006,2.994,0.004,0.592,0.004c-2.408,0-4.822,0.002-7.229,0"/>
		<path fill="none" stroke="#FFFFFF" stroke-width="1.5" stroke-linecap="round" stroke-miterlimit="10" d="M254.831,18.979
			c-2.397,0.006,2.994,0.004,0.592,0.004c-2.407,0-3.894,0.002-6.303,0"/>
		<path fill="none" stroke="#FFFFFF" stroke-width="1.5" stroke-linecap="round" stroke-miterlimit="10" d="M252.59,23.735
			c-2.398,0.006,2.994,0.004,0.592,0.004c-2.408,0-1.652,0.002-4.063,0"/>
	</g>
	<path fill="none" stroke="#FFFFFF" stroke-width="1.5" stroke-miterlimit="10" d="M245.457,19.385c0,2.63,0,5.261,0,7.89
		c0,0.835,0.354,1.353,1.055,1.522c0.155,0.037,0.324,0.034,0.487,0.034c2.399,0.003,4.8,0,7.202,0.005"/>
	<path fill="none" stroke="#FFFFFF" stroke-width="1.5" stroke-miterlimit="10" d="M267.555,14.864
		c-0.016-3.099-0.007-6.198-0.013-9.295c0-0.759-0.372-1.276-1.031-1.446c-0.163-0.042-0.344-0.042-0.516-0.042
		c-3.753-0.001-7.507-0.001-11.263-0.001"/>
	<path fill="none" stroke="#41C363" stroke-width="1.5" stroke-miterlimit="10" d="M254.814,4.081c-6.338-0.001-1.496-0.002-7.836,0
		c-0.992,0-1.521,0.527-1.521,1.508c-0.002,7.229,0,6.63,0,13.857"/>
	<path fill="none" stroke="#FFFFFF" stroke-width="1.5" stroke-miterlimit="10" d="M253.718,28.836
		c2.402-0.005,9.896-0.002,12.296-0.005c0.162,0,0.332,0.003,0.486-0.034c0.702-0.169,1.055-0.687,1.055-1.522
		c0-2.629,0-10.875,0-13.505"/>
</g>
<rect x="238.001" y="34.016" fill="#8B7100" fill-opacity="0" width="33.998" height="34.001"/>
<g>
	<g>
		<path fill="none" stroke="#FFFFFF" stroke-width="1.5" stroke-linecap="round" stroke-miterlimit="10" d="M263.55,48.068
			c-2.397,0.007-4.796,0.005-7.198,0.005c-2.408,0-4.822,0.002-7.229,0"/>
		<path fill="none" stroke="#000000" stroke-width="1.5" stroke-miterlimit="10" d="M259.173,55.313c0-1.5,1.177-2.693,2.67-2.703
			c1.474-0.006,2.716,1.221,2.72,2.69c0,1.443-1.246,2.726-2.688,2.729C260.417,58.042,259.186,56.805,259.173,55.313z"/>
		<path fill="none" stroke="#FFFFFF" stroke-width="1.5" stroke-linecap="round" stroke-miterlimit="10" d="M255.76,43.484
			c-2.398,0.007,2.994,0.005,0.592,0.005c-2.408,0-4.822,0.002-7.229,0"/>
		<path fill="none" stroke="#FFFFFF" stroke-width="1.5" stroke-linecap="round" stroke-miterlimit="10" d="M254.831,52.995
			c-2.397,0.006,2.994,0.004,0.592,0.004c-2.407,0-3.894,0.002-6.303,0"/>
		<path fill="none" stroke="#FFFFFF" stroke-width="1.5" stroke-linecap="round" stroke-miterlimit="10" d="M252.59,57.751
			c-2.398,0.007,2.994,0.005,0.592,0.005c-2.408,0-1.652,0.002-4.063,0"/>
	</g>
	<path fill="none" stroke="#FFFFFF" stroke-width="1.5" stroke-miterlimit="10" d="M245.457,53.4c0,2.631,0,5.262,0,7.891
		c0,0.836,0.354,1.354,1.055,1.521c0.155,0.037,0.324,0.035,0.487,0.035c2.399,0.002,4.8,0,7.202,0.004"/>
	<path fill="none" stroke="#FFFFFF" stroke-width="1.5" stroke-miterlimit="10" d="M267.555,48.88
		c-0.016-3.099-0.007-6.196-0.013-9.295c0-0.759-0.372-1.276-1.031-1.446c-0.163-0.041-0.344-0.041-0.516-0.041
		c-3.753,0-7.507,0-11.263,0"/>
	<path fill="none" stroke="#000000" stroke-width="1.5" stroke-miterlimit="10" d="M254.814,38.098c-6.338,0-1.496-0.002-7.836,0
		c-0.992,0-1.521,0.527-1.521,1.508c-0.002,7.229,0,6.631,0,13.857"/>
	<path fill="none" stroke="#FFFFFF" stroke-width="1.5" stroke-miterlimit="10" d="M253.718,62.854
		c2.402-0.006,9.896-0.002,12.296-0.006c0.162,0,0.332,0.004,0.486-0.033c0.702-0.17,1.055-0.688,1.055-1.521
		c0-2.629,0-10.874,0-13.505"/>
</g>
<g>
	<path fill="none" stroke="#FFFFFF" stroke-width="1.5" stroke-miterlimit="10" d="M210.313,18.146c0,2.353,0,6.707,0,9.059
		c0,0.747,0.314,1.21,0.942,1.361c0.14,0.033,0.29,0.03,0.437,0.03c2.146,0.003,7.137,0,9.283,0.005"/>
	<path fill="none" stroke="#FFFFFF" stroke-width="1.5" stroke-miterlimit="10" d="M230.766,15.878
		c-0.015-2.771-0.007-7.317-0.013-10.088c0-0.679-0.332-1.142-0.922-1.293c-0.146-0.038-0.308-0.037-0.461-0.037
		c-3.356-0.001-6.713-0.001-10.072-0.001"/>
	<path fill="none" stroke="#41C363" stroke-width="1.5" stroke-miterlimit="10" d="M219.371,4.46c-5.668-0.001-2.027-0.002-7.697,0
		c-0.888,0-1.361,0.472-1.361,1.349c-0.002,6.465,0,5.93,0,12.394"/>
</g>
<g>
	<line fill="none" stroke="#FFFFFF" stroke-width="1.5" stroke-miterlimit="1" x1="213.742" y1="23.579" x2="220.975" y2="23.579"/>
	<g>
		<line fill="none" stroke="#FFFFFF" stroke-width="1.5" stroke-miterlimit="1" x1="213.742" y1="20.26" x2="220.975" y2="20.26"/>
	</g>
	<g>
		
			<line fill="none" stroke="#FFFFFF" stroke-width="1.5" stroke-miterlimit="1" x1="213.742" y1="16.892" x2="220.975" y2="16.892"/>
	</g>
</g>
<polygon fill="none" stroke="#FFFFFF" stroke-width="1.3" stroke-linecap="round" stroke-linejoin="round" stroke-miterlimit="10" points="
	224.578,12.656 224.578,12.656 214.164,12.656 214.164,12.656 214.164,8.953 214.164,8.953 224.578,8.953 224.578,8.953 "/>
<g>
	<g>
		<path fill="none" stroke="#41C363" stroke-width="1.5" stroke-miterlimit="10" d="M224.156,16.892
			c6.437,0.809,11.49,6.107,12.266,12.247"/>
	</g>
	<g>
		<path fill="none" stroke="#FFFFFF" stroke-width="1.5" stroke-miterlimit="10" d="M224.146,21.407
			c4.16,0.792,7.106,4.228,7.73,7.733"/>
	</g>
	<g>
		<path fill="#41C363" d="M225.578,25.999c0.718,0.002,1.287,0.586,1.279,1.319c-0.01,0.704-0.584,1.259-1.31,1.257
			c-0.722-0.004-1.28-0.583-1.276-1.321C224.285,26.557,224.863,25.996,225.578,25.999z"/>
	</g>
</g>
<rect x="203.98" y="34.016" fill="#8B7100" fill-opacity="0" width="34" height="34.001"/>
<g>
	<path fill="none" stroke="#FFFFFF" stroke-width="1.5" stroke-miterlimit="10" d="M210.313,52.163c0,2.353,0,6.707,0,9.06
		c0,0.746,0.314,1.209,0.942,1.36c0.14,0.033,0.29,0.03,0.437,0.03c2.146,0.003,7.137,0,9.283,0.005"/>
	<path fill="none" stroke="#FFFFFF" stroke-width="1.5" stroke-miterlimit="10" d="M230.766,49.895
		c-0.015-2.771-0.007-7.313-0.013-10.088c0-0.679-0.332-1.142-0.922-1.293c-0.146-0.037-0.308-0.037-0.461-0.037
		c-3.356,0-6.713,0-10.072,0"/>
</g>
<g>
	<line fill="none" stroke="#FFFFFF" stroke-width="1.5" stroke-miterlimit="1" x1="213.742" y1="57.596" x2="220.975" y2="57.596"/>
	<g>
		
			<line fill="none" stroke="#FFFFFF" stroke-width="1.5" stroke-miterlimit="1" x1="213.742" y1="54.275" x2="220.975" y2="54.275"/>
	</g>
	<g>
		
			<line fill="none" stroke="#FFFFFF" stroke-width="1.5" stroke-miterlimit="1" x1="213.742" y1="50.908" x2="220.975" y2="50.908"/>
	</g>
</g>
<polygon fill="none" stroke="#FFFFFF" stroke-width="1.3" stroke-linecap="round" stroke-linejoin="round" stroke-miterlimit="10" points="
	224.578,46.673 224.578,46.673 214.164,46.673 214.164,46.673 214.164,42.971 214.164,42.971 224.578,42.971 224.578,42.971 "/>
<g>
	<g>
		<path fill="none" stroke="#000000" stroke-width="1.5" stroke-miterlimit="10" d="M224.156,50.908
			c6.437,0.809,11.49,6.107,12.266,12.246"/>
	</g>
	<g>
		<path fill="none" stroke="#FFFFFF" stroke-width="1.5" stroke-miterlimit="10" d="M224.146,55.424
			c4.16,0.791,7.106,4.229,7.73,7.732"/>
	</g>
	<g>
		<path d="M225.578,60.016c0.718,0.002,1.287,0.586,1.279,1.318c-0.01,0.704-0.584,1.26-1.31,1.257
			c-0.722-0.004-1.28-0.583-1.276-1.321C224.285,60.573,224.863,60.014,225.578,60.016z"/>
	</g>
	<path fill="none" stroke="#000000" stroke-width="1.5" stroke-miterlimit="10" d="M219.371,38.477c-5.668,0-2.027-0.002-7.697,0
		c-0.888,0-1.361,0.476-1.361,1.353c-0.002,6.465,0,5.93,0,12.396"/>
</g>
<g>
	
		<rect x="178.855" y="8.453" fill="none" stroke="#FFFFFF" stroke-width="1.5" stroke-miterlimit="10" width="15.862" height="15.864"/>
	
		<rect x="183.342" y="12.939" fill="none" stroke="#FFFFFF" stroke-width="1.5" stroke-miterlimit="10" width="6.891" height="6.891"/>
	<g>
		<polyline fill="none" stroke="#FFFFFF" stroke-width="1.5" stroke-miterlimit="10" points="181.686,7.656 181.686,3.656 
			179.257,3.656 		"/>
		<polyline fill="none" stroke="#FFFFFF" stroke-width="1.5" stroke-miterlimit="10" points="191.77,7.656 191.77,3.656 
			194.198,3.656 		"/>
		<line fill="none" stroke="#FFFFFF" stroke-width="1.5" stroke-miterlimit="10" x1="188.643" y1="7.656" x2="188.643" y2="3.656"/>
		<line fill="none" stroke="#FFFFFF" stroke-width="1.5" stroke-miterlimit="10" x1="185.18" y1="7.656" x2="185.18" y2="3.656"/>
	</g>
	<g>
		<polyline fill="none" stroke="#FFFFFF" stroke-width="1.5" stroke-miterlimit="10" points="181.686,24.966 181.686,28.966 
			179.257,28.966 		"/>
		<polyline fill="none" stroke="#FFFFFF" stroke-width="1.5" stroke-miterlimit="10" points="191.77,24.966 191.77,28.966 
			194.198,28.966 		"/>
		
			<line fill="none" stroke="#FFFFFF" stroke-width="1.5" stroke-miterlimit="10" x1="188.643" y1="24.966" x2="188.643" y2="28.966"/>
		<line fill="none" stroke="#FFFFFF" stroke-width="1.5" stroke-miterlimit="10" x1="185.18" y1="24.966" x2="185.18" y2="28.966"/>
	</g>
	<g>
		<polyline fill="none" stroke="#FFFFFF" stroke-width="1.5" stroke-miterlimit="10" points="195.452,21.701 199.452,21.701 
			199.452,24.129 		"/>
		<polyline fill="none" stroke="#FFFFFF" stroke-width="1.5" stroke-miterlimit="10" points="195.452,11.617 199.452,11.617 
			199.452,9.189 		"/>
		
			<line fill="none" stroke="#FFFFFF" stroke-width="1.5" stroke-miterlimit="10" x1="195.452" y1="14.746" x2="199.452" y2="14.746"/>
		
			<line fill="none" stroke="#FFFFFF" stroke-width="1.5" stroke-miterlimit="10" x1="195.452" y1="18.208" x2="199.452" y2="18.208"/>
	</g>
	<g>
		<polyline fill="none" stroke="#FFFFFF" stroke-width="1.5" stroke-miterlimit="10" points="178.109,21.701 174.109,21.701 
			174.109,24.129 		"/>
		<polyline fill="none" stroke="#FFFFFF" stroke-width="1.5" stroke-miterlimit="10" points="178.109,11.617 174.109,11.617 
			174.109,9.189 		"/>
		
			<line fill="none" stroke="#FFFFFF" stroke-width="1.5" stroke-miterlimit="10" x1="178.109" y1="14.746" x2="174.109" y2="14.746"/>
		
			<line fill="none" stroke="#FFFFFF" stroke-width="1.5" stroke-miterlimit="10" x1="178.109" y1="18.208" x2="174.109" y2="18.208"/>
	</g>
	<polyline fill="none" stroke="#41C363" stroke-width="1.5" stroke-miterlimit="10" points="178.855,16.709 178.855,8.453 
		186.787,8.453 	"/>
	<polyline fill="none" stroke="#41C363" stroke-width="1.5" stroke-miterlimit="10" points="186.461,24.316 194.718,24.316 
		194.718,16.385 	"/>
</g>
<rect x="169.965" y="33.999" fill="#8B7100" fill-opacity="0" width="34" height="34.001"/>
<g>
	
		<rect x="178.855" y="42.452" fill="none" stroke="#FFFFFF" stroke-width="1.5" stroke-miterlimit="10" width="15.862" height="15.864"/>
	
		<rect x="183.342" y="46.938" fill="none" stroke="#FFFFFF" stroke-width="1.5" stroke-miterlimit="10" width="6.891" height="6.896"/>
	<g>
		<polyline fill="none" stroke="#FFFFFF" stroke-width="1.5" stroke-miterlimit="10" points="181.686,41.656 181.686,37.656 
			179.257,37.656 		"/>
		<polyline fill="none" stroke="#FFFFFF" stroke-width="1.5" stroke-miterlimit="10" points="191.77,41.656 191.77,37.656 
			194.198,37.656 		"/>
		
			<line fill="none" stroke="#FFFFFF" stroke-width="1.5" stroke-miterlimit="10" x1="188.643" y1="41.656" x2="188.643" y2="37.656"/>
		<line fill="none" stroke="#FFFFFF" stroke-width="1.5" stroke-miterlimit="10" x1="185.18" y1="41.656" x2="185.18" y2="37.656"/>
	</g>
	<g>
		<polyline fill="none" stroke="#FFFFFF" stroke-width="1.5" stroke-miterlimit="10" points="181.686,58.966 181.686,62.966 
			179.257,62.966 		"/>
		<polyline fill="none" stroke="#FFFFFF" stroke-width="1.5" stroke-miterlimit="10" points="191.77,58.966 191.77,62.966 
			194.198,62.966 		"/>
		
			<line fill="none" stroke="#FFFFFF" stroke-width="1.5" stroke-miterlimit="10" x1="188.643" y1="58.966" x2="188.643" y2="62.966"/>
		<line fill="none" stroke="#FFFFFF" stroke-width="1.5" stroke-miterlimit="10" x1="185.18" y1="58.966" x2="185.18" y2="62.966"/>
	</g>
	<g>
		<polyline fill="none" stroke="#FFFFFF" stroke-width="1.5" stroke-miterlimit="10" points="195.452,55.701 199.452,55.701 
			199.452,58.129 		"/>
		<polyline fill="none" stroke="#FFFFFF" stroke-width="1.5" stroke-miterlimit="10" points="195.452,45.617 199.452,45.617 
			199.452,43.189 		"/>
		
			<line fill="none" stroke="#FFFFFF" stroke-width="1.5" stroke-miterlimit="10" x1="195.452" y1="48.745" x2="199.452" y2="48.745"/>
		
			<line fill="none" stroke="#FFFFFF" stroke-width="1.5" stroke-miterlimit="10" x1="195.452" y1="52.208" x2="199.452" y2="52.208"/>
	</g>
	<g>
		<polyline fill="none" stroke="#FFFFFF" stroke-width="1.5" stroke-miterlimit="10" points="178.109,55.701 174.109,55.701 
			174.109,58.129 		"/>
		<polyline fill="none" stroke="#FFFFFF" stroke-width="1.5" stroke-miterlimit="10" points="178.109,45.617 174.109,45.617 
			174.109,43.189 		"/>
		
			<line fill="none" stroke="#FFFFFF" stroke-width="1.5" stroke-miterlimit="10" x1="178.109" y1="48.745" x2="174.109" y2="48.745"/>
		
			<line fill="none" stroke="#FFFFFF" stroke-width="1.5" stroke-miterlimit="10" x1="178.109" y1="52.208" x2="174.109" y2="52.208"/>
	</g>
	<polyline fill="none" stroke="#000000" stroke-width="1.5" stroke-miterlimit="10" points="178.855,50.709 178.855,42.452 
		186.787,42.452 	"/>
	<polyline fill="none" stroke="#000000" stroke-width="1.5" stroke-miterlimit="10" points="186.461,58.316 194.718,58.316 
		194.718,50.385 	"/>
</g>
<rect x="285.314" y="20.024" fill="none" stroke="#FFFFFF" stroke-width="1.5" stroke-miterlimit="10" width="4.886" height="9.297"/>
<rect x="280.407" y="4.375" fill="none" stroke="#FFFFFF" stroke-width="1.5" stroke-miterlimit="10" width="14.7" height="24.946"/>
<rect x="295.107" y="13.882" fill="none" stroke="#FFFFFF" stroke-width="1.5" stroke-miterlimit="10" width="10.895" height="15.439"/>
<polyline fill="none" stroke="#41C363" stroke-width="1.5" stroke-miterlimit="10" points="306.002,18.556 306.002,29.321 
	300.081,29.321 "/>
<line fill="none" stroke="#41C363" stroke-width="1.5" stroke-miterlimit="10" x1="290.154" y1="9.559" x2="285.318" y2="9.559"/>
<line fill="none" stroke="#FFFFFF" stroke-width="1.5" stroke-miterlimit="10" x1="290.154" y1="14.912" x2="285.318" y2="14.912"/>
<line fill="none" stroke="#FFFFFF" stroke-width="1.5" stroke-miterlimit="10" x1="301.719" y1="19.347" x2="299.314" y2="19.347"/>
<line fill="none" stroke="#FFFFFF" stroke-width="1.5" stroke-miterlimit="10" x1="301.719" y1="24.698" x2="299.314" y2="24.698"/>
<rect x="285.314" y="54.023" fill="none" stroke="#FFFFFF" stroke-width="1.5" stroke-miterlimit="10" width="4.886" height="9.297"/>
<rect x="280.407" y="38.375" fill="none" stroke="#FFFFFF" stroke-width="1.5" stroke-miterlimit="10" width="14.7" height="24.945"/>
<rect x="295.107" y="47.883" fill="none" stroke="#FFFFFF" stroke-width="1.5" stroke-miterlimit="10" width="10.895" height="15.438"/>
<polyline fill="none" stroke="#000000" stroke-width="1.5" stroke-miterlimit="10" points="306.002,52.557 306.002,63.32 
	300.081,63.32 "/>
<line fill="none" stroke="#000000" stroke-width="1.5" stroke-miterlimit="10" x1="290.154" y1="43.559" x2="285.318" y2="43.559"/>
<line fill="none" stroke="#FFFFFF" stroke-width="1.5" stroke-miterlimit="10" x1="290.154" y1="48.912" x2="285.318" y2="48.912"/>
<line fill="none" stroke="#FFFFFF" stroke-width="1.5" stroke-miterlimit="10" x1="301.719" y1="53.348" x2="299.314" y2="53.348"/>
<line fill="none" stroke="#FFFFFF" stroke-width="1.5" stroke-miterlimit="10" x1="301.719" y1="58.698" x2="299.314" y2="58.698"/>
<g>
	<path fill="none" stroke="#FFFFFF" stroke-width="1.5" stroke-miterlimit="10" d="M334.949,23.008c0-1.914-1.552-3.464-3.461-3.464
		"/>
	<circle fill="none" stroke="#FFFFFF" stroke-width="1.5" stroke-miterlimit="10" cx="331.487" cy="14.76" r="2.734"/>
	<path fill="none" stroke="#41C363" stroke-width="1.5" stroke-miterlimit="10" d="M331.487,19.544c-1.911,0-3.464,1.55-3.464,3.464
		"/>
	<path fill="none" stroke="#FFFFFF" stroke-width="1.5" stroke-miterlimit="10" d="M328.024,23.008v1.974h5.67"/>
	<path fill="none" stroke="#FFFFFF" stroke-width="1.5" stroke-miterlimit="10" d="M329.28,24.982h5.669v-1.975"/>
</g>
<polyline fill="none" stroke="#FFFFFF" stroke-width="1.5" stroke-miterlimit="10" points="342.907,19.928 340.265,22.608 
	337.581,19.926 "/>
<line fill="none" stroke="#FFFFFF" stroke-width="1.5" stroke-linecap="round" stroke-linejoin="round" stroke-miterlimit="10" x1="410.059" y1="14.712" x2="410.059" y2="19.278"/>
<circle fill="#FFFFFF" cx="410.059" cy="23.012" r="1.094"/>
<polyline fill="none" stroke="#FFFFFF" stroke-width="1.5" stroke-linecap="round" stroke-linejoin="round" stroke-miterlimit="10" points="
	409.23,8.137 410.059,6.647 421.365,27 403.969,27 "/>
<polyline fill="none" stroke="#41C363" stroke-width="1.5" stroke-linecap="round" stroke-linejoin="round" stroke-miterlimit="10" points="
	404.143,27 398.75,27 410.059,6.647 "/>
<line fill="none" stroke="#FFFFFF" stroke-width="1.5" stroke-linecap="round" stroke-linejoin="round" stroke-miterlimit="10" x1="410.059" y1="47.712" x2="410.059" y2="52.277"/>
<circle fill="#FFFFFF" cx="410.059" cy="56.012" r="1.094"/>
<polyline fill="none" stroke="#FFFFFF" stroke-width="1.5" stroke-linecap="round" stroke-linejoin="round" stroke-miterlimit="10" points="
	409.23,41.137 410.059,39.646 421.365,60 403.969,60 "/>
<polyline fill="none" stroke="#000000" stroke-width="1.5" stroke-linecap="round" stroke-linejoin="round" stroke-miterlimit="10" points="
	404.143,60 398.75,60 410.059,39.646 "/>
<g>
	<path fill-rule="evenodd" clip-rule="evenodd" fill="none" stroke="#FFFFFF" stroke-width="1.5" stroke-miterlimit="10" d="
		M385.413,29.025c-9.116,0-17.061,0-26.177-0.003c-0.038,0-0.138,0.073-0.135-0.056c0.118-0.403,0.24-0.806,0.354-1.21
		c0.611-2.188,1.22-4.375,1.827-6.564c0.031-0.117,0.084-0.165,0.204-0.191c0.954-0.206,1.908-0.42,2.861-0.633
		c0.048-0.01,0.096-0.017,0.16-0.029c0,1.538,0,3.061,0,4.592"/>
	<path fill-rule="evenodd" clip-rule="evenodd" fill="none" stroke="#FFFFFF" stroke-width="1.5" stroke-miterlimit="10" d="
		M385.007,21.561c-0.008,1.813-0.014,3.625-0.019,5.437v2.761"/>
	<path fill-rule="evenodd" clip-rule="evenodd" fill="none" stroke="#FFFFFF" stroke-width="1.5" stroke-miterlimit="10" d="
		M376.679,24.928c0-1.523,0-3.046,0-4.583c0.058,0.005,0.1,0.004,0.142,0.013c0.982,0.217,1.966,0.435,2.946,0.658
		c0.066,0.015,0.132,0.067,0.177,0.119c0.502,0.59,1.001,1.184,1.5,1.776c0.032,0.038,0.065,0.074,0.131,0.146
		c0-0.093,0-0.147,0-0.202c0.006-2.142,0.009-4.283,0.021-6.424c0.001-0.17-0.045-0.286-0.166-0.407
		c-0.482-0.48-0.963-0.962-1.443-1.445"/>
	<path fill-rule="evenodd" clip-rule="evenodd" fill="none" stroke="#FFFFFF" stroke-width="1.5" stroke-miterlimit="10" d="
		M364.906,20.25c0.262-0.049,1.868-0.376,2.093-0.5c0.223-0.122,0.38-0.358,0.566-0.544c0.193-0.193,0.387-0.386,0.606-0.604
		c0.029,0.042,0.054,0.086,0.085,0.123c0.536,0.582,1.07,1.163,1.607,1.742c0.028,0.03,0.082,0.052,0.124,0.052
		c0.402,0.003,0.805,0.005,1.208-0.001c0.048-0.001,0.107-0.035,0.143-0.072c0.562-0.604,1.118-1.211,1.686-1.826
		c0.036,0.033,0.07,0.061,0.1,0.09c0.326,0.327,0.65,0.656,0.98,0.978c0.058,0.055,0.138,0.098,0.214,0.117
		c0.211,0.055,1.811,0.471,2.025,0.509"/>
	<path fill-rule="evenodd" clip-rule="evenodd" fill="none" stroke="#FFFFFF" stroke-width="1.5" stroke-miterlimit="10" d="
		M377.724,11.868c-4.77,0-9.54,0-14.321,0"/>
	<path fill-rule="evenodd" clip-rule="evenodd" fill="none" stroke="#FFFFFF" stroke-width="1.5" stroke-miterlimit="10" d="
		M364.702,11.561c0.067-0.642,0.116-1.287,0.219-1.922c0.18-1.136,0.508-2.226,1.179-3.182c0.735-1.05,1.756-1.66,3.002-1.903
		c0.369-0.072,0.745-0.102,1.119-0.151c0.249,0,0.496,0,0.745,0c0.311,0.038,0.622,0.063,0.929,0.115
		c1.815,0.302,3.063,1.324,3.779,3.007c0.373,0.874,0.57,1.794,0.686,2.733c0.054,0.443,0.089,0.89,0.125,1.334"/>
	<path fill-rule="evenodd" clip-rule="evenodd" fill="none" stroke="#FFFFFF" stroke-width="1.5" stroke-miterlimit="10" d="
		M365.333,11.885c3.518,0,7.025,0,10.544,0c-0.122,0.757-0.32,1.482-0.586,2.189c-0.425,1.133-0.986,2.189-1.784,3.107
		c-0.395,0.453-0.837,0.848-1.365,1.142c-1.087,0.604-2.162,0.563-3.219-0.079c-0.816-0.496-1.424-1.2-1.937-1.99
		c-0.845-1.304-1.372-2.733-1.646-4.259C365.335,11.96,365.336,11.927,365.333,11.885z"/>
</g>
<path fill-rule="evenodd" clip-rule="evenodd" fill="none" stroke="#41C363" stroke-width="1.5" stroke-miterlimit="10" d="
	M380.07,14.664c-0.512-0.514-1.023-1.029-1.536-1.542c-0.081-0.082-0.088-0.136-0.029-0.236c0.777-1.34,1.551-2.681,2.32-4.024
	c0.058-0.103,0.12-0.137,0.233-0.131c0.178,0.009,0.356,0.002,0.553,0.002c0,1.199,0,2.383,0,3.58c1.179,0,2.338,0,3.509,0
	c0-1.188,0-2.373,0-3.576c0.235,0,0.457-0.006,0.679,0.005c0.04,0.002,0.087,0.071,0.114,0.119c0.771,1.332,1.541,2.664,2.311,3.995
	c0.026,0.046,0.062,0.088,0.091,0.132c0,0.01,0,0.02,0,0.03c-1.07,1.078-2.143,2.155-3.21,3.236
	c-0.046,0.046-0.075,0.129-0.075,0.194c-0.009,1.745-0.017,3.49-0.023,5.235"/>
<g>
	<path fill-rule="evenodd" clip-rule="evenodd" fill="none" stroke="#FFFFFF" stroke-width="1.5" stroke-miterlimit="10" d="
		M385.413,61.025c-9.116,0-17.061,0-26.177-0.004c-0.038,0-0.138,0.072-0.135-0.056c0.118-0.403,0.24-0.806,0.354-1.21
		c0.611-2.188,1.22-4.376,1.827-6.564c0.031-0.117,0.084-0.166,0.204-0.191c0.954-0.205,1.908-0.42,2.861-0.633
		c0.048-0.01,0.096-0.018,0.16-0.029c0,1.538,0,3.061,0,4.592"/>
	<path fill-rule="evenodd" clip-rule="evenodd" fill="none" stroke="#FFFFFF" stroke-width="1.5" stroke-miterlimit="10" d="
		M385.007,53.561c-0.008,1.813-0.014,3.625-0.019,5.437v2.761"/>
	<path fill-rule="evenodd" clip-rule="evenodd" fill="none" stroke="#FFFFFF" stroke-width="1.5" stroke-miterlimit="10" d="
		M376.679,56.928c0-1.523,0-3.046,0-4.583c0.058,0.005,0.1,0.005,0.142,0.013c0.982,0.218,1.966,0.436,2.946,0.658
		c0.066,0.016,0.132,0.067,0.177,0.119c0.502,0.591,1.001,1.184,1.5,1.776c0.032,0.038,0.065,0.073,0.131,0.146
		c0-0.093,0-0.146,0-0.201c0.006-2.143,0.009-4.283,0.021-6.424c0.001-0.171-0.045-0.287-0.166-0.408
		c-0.482-0.479-0.963-0.962-1.443-1.444"/>
	<path fill-rule="evenodd" clip-rule="evenodd" fill="none" stroke="#FFFFFF" stroke-width="1.5" stroke-miterlimit="10" d="
		M364.906,52.25c0.262-0.049,1.868-0.376,2.093-0.5c0.223-0.123,0.38-0.359,0.566-0.545c0.193-0.192,0.387-0.385,0.606-0.604
		c0.029,0.043,0.054,0.086,0.085,0.123c0.536,0.582,1.07,1.162,1.607,1.741c0.028,0.03,0.082,0.052,0.124,0.052
		c0.402,0.004,0.805,0.005,1.208-0.002c0.048,0,0.107-0.035,0.143-0.072c0.562-0.604,1.118-1.211,1.686-1.825
		c0.036,0.032,0.07,0.061,0.1,0.091c0.326,0.326,0.65,0.655,0.98,0.978c0.058,0.056,0.138,0.098,0.214,0.117
		c0.211,0.056,1.811,0.471,2.025,0.509"/>
	<path fill-rule="evenodd" clip-rule="evenodd" fill="none" stroke="#FFFFFF" stroke-width="1.5" stroke-miterlimit="10" d="
		M377.724,43.868c-4.77,0-9.54,0-14.321,0"/>
	<path fill-rule="evenodd" clip-rule="evenodd" fill="none" stroke="#FFFFFF" stroke-width="1.5" stroke-miterlimit="10" d="
		M364.702,43.561c0.067-0.642,0.116-1.287,0.219-1.922c0.18-1.137,0.508-2.227,1.179-3.183c0.735-1.05,1.756-1.66,3.002-1.903
		c0.369-0.072,0.745-0.102,1.119-0.151c0.249,0,0.496,0,0.745,0c0.311,0.038,0.622,0.063,0.929,0.115
		c1.815,0.302,3.063,1.324,3.779,3.007c0.373,0.875,0.57,1.795,0.686,2.734c0.054,0.443,0.089,0.889,0.125,1.334"/>
	<path fill-rule="evenodd" clip-rule="evenodd" fill="none" stroke="#FFFFFF" stroke-width="1.5" stroke-miterlimit="10" d="
		M365.333,43.885c3.518,0,7.025,0,10.544,0c-0.122,0.758-0.32,1.482-0.586,2.189c-0.425,1.133-0.986,2.189-1.784,3.106
		c-0.395,0.452-0.837,0.849-1.365,1.142c-1.087,0.604-2.162,0.563-3.219-0.079c-0.816-0.496-1.424-1.2-1.937-1.99
		c-0.845-1.304-1.372-2.733-1.646-4.259C365.335,43.961,365.336,43.927,365.333,43.885z"/>
</g>
<path fill-rule="evenodd" clip-rule="evenodd" fill="none" stroke="#000000" stroke-width="1.5" stroke-miterlimit="10" d="
	M380.07,46.664c-0.512-0.515-1.023-1.029-1.536-1.543c-0.081-0.082-0.088-0.136-0.029-0.235c0.777-1.34,1.551-2.681,2.32-4.024
	c0.058-0.103,0.12-0.137,0.233-0.131c0.178,0.009,0.356,0.002,0.553,0.002c0,1.199,0,2.384,0,3.58c1.179,0,2.338,0,3.509,0
	c0-1.188,0-2.373,0-3.576c0.235,0,0.457-0.006,0.679,0.006c0.04,0.002,0.087,0.07,0.114,0.118c0.771,1.331,1.541,2.663,2.311,3.995
	c0.026,0.046,0.062,0.088,0.091,0.133c0,0.01,0,0.02,0,0.029c-1.07,1.078-2.143,2.155-3.21,3.236
	c-0.046,0.046-0.075,0.129-0.075,0.194c-0.009,1.745-0.017,3.49-0.023,5.235"/>
<polyline fill="none" stroke="#FFFFFF" stroke-width="1.5" stroke-miterlimit="10" points="340.333,26 340.333,29.333 
	323.917,29.333 323.917,8.375 340.333,8.375 340.333,11.125 "/>
<polyline fill="none" stroke="#41C363" stroke-width="1.5" stroke-miterlimit="10" points="337.581,17.113 340.224,14.433 
	342.907,17.115 "/>
<rect x="320" y="4.375" fill="none" stroke="#FFFFFF" stroke-width="1.5" stroke-miterlimit="10" width="25.708" height="24.958"/>
<g>
	<path fill="none" stroke="#FFFFFF" stroke-width="1.5" stroke-miterlimit="10" d="M334.949,57.008c0-1.914-1.552-3.464-3.461-3.464
		"/>
	<circle fill="none" stroke="#FFFFFF" stroke-width="1.5" stroke-miterlimit="10" cx="331.487" cy="48.76" r="2.734"/>
	<path fill="none" stroke="#000000" stroke-width="1.5" stroke-miterlimit="10" d="M331.487,53.544c-1.911,0-3.464,1.55-3.464,3.464
		"/>
	<path fill="none" stroke="#FFFFFF" stroke-width="1.5" stroke-miterlimit="10" d="M328.024,57.008v1.975h5.67"/>
	<path fill="none" stroke="#FFFFFF" stroke-width="1.5" stroke-miterlimit="10" d="M329.28,58.982h5.669v-1.975"/>
</g>
<polyline fill="none" stroke="#FFFFFF" stroke-width="1.5" stroke-miterlimit="10" points="342.907,53.928 340.265,56.607 
	337.581,53.926 "/>
<polyline fill="none" stroke="#FFFFFF" stroke-width="1.5" stroke-miterlimit="10" points="340.333,60 340.333,63.334 
	323.917,63.334 323.917,42.375 340.333,42.375 340.333,45.125 "/>
<polyline fill="none" stroke="#000000" stroke-width="1.5" stroke-miterlimit="10" points="337.581,51.113 340.224,48.434 
	342.907,51.115 "/>
<rect x="320" y="38.375" fill="none" stroke="#FFFFFF" stroke-width="1.5" stroke-miterlimit="10" width="25.708" height="24.959"/>
</svg>
