<?xml version="1.0" encoding="utf-8"?>
<!-- Generator: Adobe Illustrator 16.0.3, SVG Export Plug-In . SVG Version: 6.00 Build 0)  -->
<!DOCTYPE svg PUBLIC "-//W3C//DTD SVG 1.1//EN" "http://www.w3.org/Graphics/SVG/1.1/DTD/svg11.dtd">
<svg version="1.1" id="Admin" xmlns="http://www.w3.org/2000/svg" xmlns:xlink="http://www.w3.org/1999/xlink" x="0px" y="0px"
	 width="90.229px" height="46.969px" viewBox="0 0 90.229 46.969" enable-background="new 0 0 90.229 46.969" xml:space="preserve">
<g>
	<path fill="#FFFFFF" d="M4.72,17.497c1.227,0,2.2,0.514,2.92,1.54l-1.14,0.98c-0.333-0.36-0.637-0.617-0.91-0.771
		s-0.583-0.229-0.93-0.229c-0.347,0-0.637,0.109-0.87,0.33c-0.233,0.22-0.35,0.536-0.35,0.949c0,0.308,0.117,0.558,0.35,0.75
		c0.233,0.194,0.523,0.374,0.87,0.54c0.346,0.167,0.72,0.33,1.12,0.49c0.4,0.16,0.773,0.351,1.12,0.57s0.637,0.493,0.87,0.82
		c0.233,0.326,0.35,0.736,0.35,1.229c0,1.014-0.3,1.8-0.9,2.36c-0.6,0.56-1.414,0.84-2.44,0.84c-0.52,0-0.983-0.077-1.39-0.23
		c-0.407-0.152-0.764-0.359-1.07-0.62c-0.307-0.26-0.567-0.55-0.78-0.869c-0.213-0.32-0.387-0.653-0.52-1l1.42-0.78
		c0.227,0.547,0.533,1.014,0.92,1.399c0.387,0.388,0.86,0.58,1.42,0.58c0.507,0,0.903-0.13,1.19-0.39
		c0.286-0.26,0.43-0.656,0.43-1.19c0-0.306-0.113-0.556-0.34-0.75c-0.227-0.192-0.514-0.366-0.86-0.52
		c-0.347-0.153-0.72-0.307-1.12-0.46s-0.773-0.347-1.12-0.58s-0.633-0.523-0.86-0.87c-0.227-0.347-0.34-0.793-0.34-1.34
		c0-0.387,0.07-0.75,0.21-1.09c0.14-0.34,0.336-0.634,0.59-0.88c0.253-0.247,0.563-0.443,0.93-0.59
		C3.856,17.57,4.266,17.497,4.72,17.497z"/>
	<path fill="#FFFFFF" d="M24.7,27.737h-1.68v-6.74c0-1.319-0.54-1.979-1.62-1.979c-0.36,0-0.704,0.1-1.03,0.3
		s-0.613,0.497-0.86,0.89c-0.247,0.394-0.44,0.874-0.58,1.44s-0.21,1.217-0.21,1.95v4.14h-1.68v-6.74c0-1.319-0.54-1.979-1.62-1.979
		c-0.36,0-0.704,0.1-1.03,0.3s-0.613,0.497-0.86,0.89c-0.247,0.394-0.44,0.874-0.58,1.44s-0.21,1.217-0.21,1.95v4.14h-1.68v-10.08
		h1.68v1.86c0.32-0.641,0.747-1.137,1.28-1.49s1.153-0.53,1.86-0.53c0.707,0,1.293,0.184,1.76,0.55
		c0.467,0.367,0.78,0.884,0.94,1.551c0.347-0.667,0.8-1.184,1.36-1.551c0.56-0.366,1.2-0.55,1.92-0.55c0.92,0,1.623,0.28,2.11,0.84
		c0.486,0.561,0.73,1.327,0.73,2.301V27.737z"/>
	<path fill="#FFFFFF" d="M35.459,27.737H34.14l-0.28-1.42c-0.32,0.467-0.737,0.847-1.25,1.14s-1.15,0.44-1.91,0.44
		c-0.427,0-0.827-0.057-1.2-0.17c-0.374-0.113-0.704-0.297-0.99-0.55c-0.287-0.254-0.513-0.57-0.68-0.95
		c-0.167-0.38-0.25-0.844-0.25-1.391c0-0.533,0.106-1.006,0.32-1.42c0.213-0.413,0.52-0.76,0.92-1.04
		c0.4-0.279,0.88-0.489,1.44-0.63c0.56-0.14,1.187-0.21,1.88-0.21h1.64v-0.439c0-0.773-0.213-1.313-0.64-1.62
		c-0.427-0.307-0.947-0.46-1.56-0.46c-0.52,0-0.974,0.137-1.36,0.41s-0.633,0.663-0.74,1.17L28,20.257
		c0.146-0.853,0.54-1.526,1.18-2.02c0.64-0.493,1.44-0.74,2.4-0.74c0.56,0,1.077,0.073,1.55,0.221
		c0.473,0.146,0.883,0.373,1.23,0.68c0.346,0.307,0.617,0.7,0.811,1.18c0.193,0.48,0.289,1.054,0.289,1.72V27.737z M29.299,24.837
		c0,0.48,0.143,0.857,0.43,1.131c0.287,0.273,0.697,0.409,1.23,0.409c0.32,0,0.65-0.053,0.99-0.159
		c0.34-0.107,0.643-0.28,0.91-0.521s0.487-0.557,0.66-0.95c0.173-0.393,0.26-0.876,0.26-1.45v-0.239h-1.8
		c-0.867,0-1.53,0.153-1.99,0.46C29.529,23.824,29.299,24.265,29.299,24.837z"/>
	<path fill="#FFFFFF" d="M44.339,19.297c-0.373-0.187-0.767-0.279-1.18-0.279c-0.347,0-0.687,0.1-1.02,0.3
		c-0.334,0.2-0.634,0.507-0.9,0.92s-0.483,0.927-0.65,1.54c-0.166,0.613-0.25,1.327-0.25,2.14v3.82h-1.68v-10.08h1.68v1.72
		c0.147-0.279,0.334-0.536,0.561-0.77s0.47-0.43,0.729-0.59c0.261-0.16,0.533-0.287,0.82-0.38c0.287-0.094,0.57-0.141,0.851-0.141
		c0.279,0,0.543,0.03,0.789,0.09c0.247,0.061,0.443,0.131,0.591,0.21L44.339,19.297z"/>
	<path fill="#FFFFFF" d="M45.579,17.657h1.74v-3.02l1.68-1.061v4.08h2.64v1.521h-2.64v5.54c0,0.547,0.116,0.96,0.35,1.239
		c0.233,0.28,0.563,0.42,0.99,0.42c0.227,0,0.427-0.022,0.601-0.069c0.173-0.047,0.353-0.13,0.54-0.25l0.399,1.46
		c-0.24,0.146-0.5,0.246-0.78,0.3c-0.279,0.053-0.566,0.08-0.859,0.08c-0.854,0-1.554-0.267-2.101-0.8s-0.819-1.373-0.819-2.521
		v-5.399h-1.74V17.657z"/>
	<path fill="#FFFFFF" d="M10.2,42.058h-7.4c0.027,0.467,0.104,0.899,0.23,1.3c0.127,0.399,0.307,0.75,0.54,1.05
		s0.523,0.537,0.87,0.71c0.347,0.174,0.747,0.26,1.2,0.26c0.747,0,1.33-0.163,1.75-0.489c0.42-0.327,0.77-0.804,1.05-1.431
		l1.48,0.641c-0.467,0.986-1.037,1.699-1.71,2.14s-1.53,0.66-2.57,0.66c-0.76,0-1.427-0.144-2-0.43
		c-0.574-0.287-1.05-0.671-1.43-1.15c-0.38-0.48-0.664-1.033-0.85-1.66s-0.28-1.28-0.28-1.96s0.093-1.333,0.28-1.96
		s0.47-1.18,0.85-1.66c0.38-0.479,0.856-0.863,1.43-1.149c0.573-0.287,1.24-0.431,2-0.431c0.747,0,1.403,0.134,1.97,0.4
		s1.043,0.62,1.43,1.06c0.387,0.44,0.677,0.947,0.87,1.521c0.193,0.573,0.29,1.173,0.29,1.8V42.058z M5.64,38.018
		c-0.787,0-1.404,0.236-1.85,0.71c-0.447,0.474-0.744,1.076-0.89,1.81h5.54c-0.147-0.72-0.447-1.319-0.9-1.8
		C7.086,38.257,6.453,38.018,5.64,38.018z"/>
	<path fill="#FFFFFF" d="M14.679,32.577v14.16h-1.68v-14.16H14.679z"/>
	<path fill="#FFFFFF" d="M26.56,42.058h-7.4c0.027,0.467,0.104,0.899,0.23,1.3c0.127,0.399,0.307,0.75,0.54,1.05
		s0.523,0.537,0.87,0.71c0.347,0.174,0.747,0.26,1.2,0.26c0.747,0,1.33-0.163,1.75-0.489c0.42-0.327,0.77-0.804,1.05-1.431
		l1.48,0.641c-0.467,0.986-1.037,1.699-1.71,2.14s-1.53,0.66-2.57,0.66c-0.76,0-1.427-0.144-2-0.43
		c-0.574-0.287-1.05-0.671-1.43-1.15c-0.38-0.48-0.664-1.033-0.85-1.66s-0.28-1.28-0.28-1.96s0.093-1.333,0.28-1.96
		s0.47-1.18,0.85-1.66c0.38-0.479,0.856-0.863,1.43-1.149c0.573-0.287,1.24-0.431,2-0.431c0.747,0,1.403,0.134,1.97,0.4
		s1.043,0.62,1.43,1.06c0.387,0.44,0.677,0.947,0.87,1.521c0.193,0.573,0.29,1.173,0.29,1.8V42.058z M22,38.018
		c-0.787,0-1.404,0.236-1.85,0.71c-0.447,0.474-0.744,1.076-0.89,1.81h5.54c-0.147-0.72-0.447-1.319-0.9-1.8
		C23.446,38.257,22.813,38.018,22,38.018z"/>
	<path fill="#FFFFFF" d="M36.3,36.657l-3.32,10.08h-1.72l-3.32-10.08h1.72l2.46,7.94l2.459-7.94H36.3z"/>
	<path fill="#FFFFFF" d="M45.68,46.737h-1.32l-0.279-1.42c-0.32,0.467-0.737,0.847-1.25,1.14c-0.514,0.293-1.15,0.44-1.91,0.44
		c-0.427,0-0.827-0.057-1.2-0.17s-0.703-0.297-0.99-0.55c-0.287-0.254-0.514-0.57-0.68-0.95c-0.167-0.38-0.25-0.844-0.25-1.391
		c0-0.533,0.106-1.006,0.32-1.42c0.213-0.413,0.52-0.76,0.92-1.04c0.399-0.279,0.88-0.489,1.439-0.63
		c0.561-0.14,1.187-0.21,1.88-0.21H44v-0.439c0-0.773-0.214-1.313-0.641-1.62s-0.946-0.46-1.56-0.46c-0.521,0-0.974,0.137-1.36,0.41
		s-0.633,0.663-0.74,1.17l-1.479-0.341c0.146-0.853,0.54-1.526,1.18-2.02c0.641-0.493,1.44-0.74,2.4-0.74
		c0.56,0,1.076,0.073,1.55,0.221c0.474,0.146,0.883,0.373,1.23,0.68c0.346,0.307,0.616,0.7,0.81,1.18
		c0.193,0.48,0.29,1.054,0.29,1.72V46.737z M39.52,43.837c0,0.48,0.144,0.857,0.43,1.131c0.287,0.273,0.697,0.409,1.23,0.409
		c0.32,0,0.65-0.053,0.99-0.159c0.34-0.107,0.643-0.28,0.91-0.521c0.267-0.24,0.486-0.557,0.659-0.95
		C43.913,43.354,44,42.871,44,42.297v-0.239h-1.801c-0.866,0-1.529,0.153-1.989,0.46S39.52,43.265,39.52,43.837z"/>
	<path fill="#FFFFFF" d="M47.539,36.657h1.74v-3.02l1.68-1.061v4.08h2.64v1.521h-2.64v5.54c0,0.547,0.116,0.96,0.35,1.239
		c0.233,0.28,0.563,0.42,0.99,0.42c0.227,0,0.427-0.022,0.601-0.069c0.173-0.047,0.353-0.13,0.54-0.25l0.399,1.46
		c-0.24,0.146-0.5,0.246-0.78,0.3c-0.279,0.053-0.566,0.08-0.859,0.08c-0.854,0-1.554-0.267-2.101-0.8s-0.819-1.373-0.819-2.521
		v-5.399h-1.74V36.657z"/>
	<path fill="#FFFFFF" d="M55.679,41.697c0-0.68,0.11-1.333,0.33-1.96s0.54-1.18,0.96-1.66c0.42-0.479,0.927-0.863,1.52-1.149
		c0.594-0.287,1.271-0.431,2.03-0.431s1.437,0.144,2.03,0.431c0.593,0.286,1.1,0.67,1.52,1.149c0.42,0.48,0.74,1.033,0.96,1.66
		c0.221,0.627,0.33,1.28,0.33,1.96s-0.109,1.333-0.33,1.96c-0.22,0.627-0.54,1.18-0.96,1.66c-0.42,0.479-0.927,0.863-1.52,1.15
		c-0.594,0.286-1.271,0.43-2.03,0.43s-1.437-0.144-2.03-0.43c-0.593-0.287-1.1-0.671-1.52-1.15c-0.42-0.48-0.74-1.033-0.96-1.66
		S55.679,42.377,55.679,41.697z M57.398,41.697c0,0.467,0.066,0.92,0.2,1.36c0.133,0.439,0.33,0.833,0.59,1.18
		s0.583,0.623,0.97,0.83s0.841,0.31,1.36,0.31c0.521,0,0.974-0.103,1.36-0.31s0.71-0.483,0.97-0.83s0.457-0.74,0.59-1.18
		c0.133-0.44,0.2-0.894,0.2-1.36s-0.067-0.92-0.2-1.36c-0.133-0.439-0.33-0.833-0.59-1.18s-0.583-0.623-0.97-0.83
		c-0.387-0.206-0.84-0.31-1.36-0.31c-0.52,0-0.974,0.104-1.36,0.31c-0.387,0.207-0.71,0.483-0.97,0.83s-0.457,0.74-0.59,1.18
		C57.465,40.777,57.398,41.23,57.398,41.697z"/>
	<path fill="#FFFFFF" d="M73.958,38.297c-0.373-0.187-0.767-0.279-1.18-0.279c-0.347,0-0.687,0.1-1.02,0.3
		c-0.334,0.2-0.634,0.507-0.9,0.92s-0.483,0.927-0.65,1.54c-0.166,0.613-0.25,1.327-0.25,2.14v3.82h-1.68v-10.08h1.68v1.72
		c0.147-0.279,0.334-0.536,0.561-0.77s0.47-0.43,0.729-0.59c0.261-0.16,0.533-0.287,0.82-0.38c0.287-0.094,0.57-0.141,0.851-0.141
		c0.279,0,0.543,0.03,0.789,0.09c0.247,0.061,0.443,0.131,0.591,0.21L73.958,38.297z"/>
</g>
<path fill="none" stroke="#41C363" stroke-width="1.5" stroke-miterlimit="10" d="M86.714,6.843
	c-0.05-0.052-0.104-0.102-0.157-0.149c-1.077-0.971-2.342-1.44-4.069-1.442c-1.133,0.024-2.374,0.497-3.428,1.449 M85.447,8.377
	c-0.748-0.686-1.627-1.029-2.641-1.034c-0.971,0.001-1.91,0.36-2.588,0.989 M84.299,9.995c-0.419-0.388-0.921-0.567-1.487-0.594
	c-0.56,0.019-1.064,0.19-1.489,0.57"/>
<path fill="none" stroke="#41C363" stroke-width="1.5" stroke-miterlimit="10" d="M61.875,30.073c0-4.205,0-8.487,0-12.725
	c3.007,0,6.007,0,9.031,0c0,4.22,0,8.489,0,12.725"/>
<path fill="none" stroke="#41C363" stroke-width="1.5" stroke-miterlimit="10" d="M78.077,29.903
	c1.253-0.002,3.624,0.002,4.877-0.002c2.339-0.008,4.072-1.732,4.077-4.067c0.005-3.055,0.001-6.385,0.001-9.441"/>
<path fill="none" stroke="#41C363" stroke-width="1.5" stroke-miterlimit="10" d="M73.393,5.973c-2.839,0-8.731,0-11.569,0.001
	c-1.972,0.001-3.229,1.263-3.23,3.24c-0.002,0.423,0.013,0.848-0.008,1.271"/>
<g>
	<path fill="none" stroke="#FFFFFF" stroke-width="1.5" stroke-miterlimit="10" d="M66.683,9.045c0,2.133,0,2.734,0,4.902
		c2.317,0,5.306,0,7.61,0c0,5.224,0,11.161,0,16.385c-4.976,0-10.789,0-15.808,0c0-5.187,0-11.125,0-16.377c2.304,0,6.728,0,9.029,0
		 M66.697,30.237c0-3.43,0-8.757,0-12.159"/>
</g>
<path fill="none" stroke="#FFFFFF" stroke-width="1.5" stroke-miterlimit="10" d="M82.681,13.235
	c-3.22-0.006-5.822-2.626-5.813-5.856c0.008-3.218,2.636-5.818,5.865-5.805c3.201,0.012,5.799,2.63,5.795,5.837
	C88.523,10.634,85.905,13.24,82.681,13.235z"/>
<polyline fill="none" stroke="#41C363" stroke-width="1.5" stroke-miterlimit="10" points="77.866,19.2 80.434,16.631 83.002,19.2 
	"/>
<line fill="none" stroke="#41C363" stroke-width="1.5" stroke-miterlimit="10" x1="80.434" y1="16.912" x2="80.434" y2="21.128"/>
<polyline fill="none" stroke="#41C363" stroke-width="1.5" stroke-miterlimit="10" points="83.002,24.457 80.434,27.024 
	77.866,24.457 "/>
<line fill="none" stroke="#41C363" stroke-width="1.5" stroke-miterlimit="10" x1="80.434" y1="26.743" x2="80.434" y2="22.528"/>
</svg>
