<?xml version="1.0" encoding="utf-8"?>
<!-- Generator: Adobe Illustrator 16.0.3, SVG Export Plug-In . SVG Version: 6.00 Build 0)  -->
<!DOCTYPE svg PUBLIC "-//W3C//DTD SVG 1.1//EN" "http://www.w3.org/Graphics/SVG/1.1/DTD/svg11.dtd">
<svg version="1.1" id="Layer_1" xmlns="http://www.w3.org/2000/svg" xmlns:xlink="http://www.w3.org/1999/xlink" x="0px" y="0px"
	 width="84.875px" height="42.25px" viewBox="0 0 84.875 42.25" enable-background="new 0 0 84.875 42.25" xml:space="preserve">
<g>
	<g>
		<path fill="#FFFFFF" d="M6.338,16.682c-0.211-0.264-0.471-0.484-0.781-0.662s-0.688-0.267-1.136-0.267
			c-0.422,0-0.788,0.089-1.097,0.267c-0.31,0.178-0.465,0.438-0.465,0.781c0,0.276,0.089,0.501,0.267,0.672s0.389,0.31,0.632,0.415
			c0.244,0.105,0.504,0.185,0.781,0.237c0.276,0.053,0.514,0.099,0.711,0.139c0.382,0.092,0.741,0.204,1.077,0.336
			s0.626,0.303,0.87,0.514c0.244,0.211,0.435,0.468,0.573,0.771c0.139,0.304,0.208,0.673,0.208,1.107
			c0,0.527-0.112,0.979-0.336,1.354c-0.224,0.376-0.514,0.683-0.87,0.92s-0.761,0.408-1.216,0.514s-0.913,0.158-1.374,0.158
			c-0.778,0-1.46-0.119-2.046-0.355c-0.586-0.237-1.11-0.673-1.571-1.305l1.344-1.107c0.29,0.29,0.613,0.547,0.969,0.771
			c0.356,0.224,0.791,0.336,1.305,0.336c0.224,0,0.451-0.023,0.682-0.069s0.435-0.119,0.613-0.218
			c0.178-0.099,0.323-0.224,0.435-0.375c0.112-0.151,0.168-0.326,0.168-0.524c0-0.264-0.083-0.48-0.247-0.652
			c-0.165-0.171-0.362-0.307-0.593-0.405c-0.231-0.099-0.475-0.178-0.731-0.237c-0.257-0.059-0.484-0.108-0.682-0.148
			c-0.382-0.092-0.745-0.197-1.087-0.315c-0.343-0.119-0.646-0.277-0.91-0.475c-0.264-0.198-0.474-0.448-0.632-0.751
			c-0.158-0.304-0.237-0.679-0.237-1.127c0-0.487,0.102-0.912,0.307-1.275c0.204-0.362,0.474-0.662,0.81-0.899
			c0.336-0.237,0.718-0.415,1.146-0.533c0.428-0.119,0.86-0.178,1.295-0.178c0.632,0,1.239,0.118,1.818,0.355
			c0.58,0.237,1.041,0.633,1.384,1.186L6.338,16.682z"/>
		<path fill="#FFFFFF" d="M9.738,14.33h1.66v1.462h0.04c0.04-0.131,0.142-0.296,0.307-0.494c0.165-0.197,0.375-0.385,0.632-0.563
			c0.257-0.178,0.56-0.329,0.909-0.454s0.735-0.188,1.157-0.188c0.698,0,1.285,0.145,1.759,0.435
			c0.474,0.29,0.863,0.725,1.166,1.305c0.303-0.58,0.731-1.015,1.285-1.305c0.554-0.29,1.114-0.435,1.68-0.435
			c0.725,0,1.318,0.118,1.779,0.355c0.461,0.237,0.823,0.551,1.087,0.938c0.264,0.39,0.445,0.831,0.544,1.325
			c0.099,0.494,0.148,1.005,0.148,1.531v5.456h-1.779V18.48c0-0.355-0.023-0.698-0.069-1.027c-0.046-0.329-0.142-0.619-0.287-0.87
			c-0.145-0.25-0.349-0.451-0.613-0.603s-0.613-0.228-1.047-0.228c-0.857,0-1.47,0.264-1.838,0.791
			c-0.369,0.526-0.554,1.205-0.554,2.035v5.12h-1.779v-4.902c0-0.447-0.023-0.856-0.069-1.226c-0.046-0.368-0.138-0.688-0.277-0.959
			c-0.138-0.27-0.336-0.48-0.593-0.632s-0.603-0.228-1.038-0.228c-0.316,0-0.623,0.063-0.919,0.188
			c-0.296,0.126-0.557,0.313-0.781,0.563c-0.224,0.251-0.402,0.57-0.534,0.959s-0.198,0.847-0.198,1.374v4.862H9.738V14.33z"/>
		<path fill="#FFFFFF" d="M26.224,15.477c0.5-0.462,1.08-0.808,1.739-1.038c0.659-0.23,1.318-0.346,1.977-0.346
			c0.685,0,1.275,0.086,1.769,0.257s0.899,0.402,1.215,0.691c0.316,0.29,0.55,0.623,0.702,0.998
			c0.151,0.376,0.227,0.769,0.227,1.177v4.783c0,0.33,0.006,0.633,0.02,0.909c0.013,0.277,0.033,0.541,0.059,0.791h-1.582
			c-0.04-0.475-0.059-0.949-0.059-1.423h-0.04c-0.396,0.605-0.863,1.034-1.403,1.284c-0.541,0.25-1.167,0.376-1.878,0.376
			c-0.435,0-0.85-0.06-1.246-0.178c-0.395-0.119-0.741-0.297-1.038-0.534s-0.531-0.53-0.702-0.88
			c-0.171-0.349-0.257-0.754-0.257-1.215c0-0.606,0.135-1.114,0.405-1.522c0.27-0.408,0.639-0.741,1.107-0.998
			c0.467-0.257,1.015-0.441,1.641-0.554c0.625-0.111,1.294-0.168,2.006-0.168h1.305v-0.396c0-0.237-0.046-0.475-0.139-0.712
			c-0.092-0.236-0.23-0.451-0.415-0.642c-0.185-0.191-0.415-0.343-0.692-0.455c-0.277-0.111-0.606-0.168-0.988-0.168
			c-0.343,0-0.643,0.033-0.899,0.099c-0.257,0.066-0.491,0.148-0.702,0.247c-0.211,0.099-0.402,0.215-0.573,0.346
			c-0.171,0.133-0.336,0.258-0.494,0.376L26.224,15.477z M31.244,19.192c-0.422,0-0.853,0.023-1.294,0.069
			c-0.442,0.046-0.844,0.135-1.206,0.267s-0.659,0.316-0.889,0.554c-0.231,0.237-0.346,0.54-0.346,0.909
			c0,0.54,0.181,0.929,0.543,1.166s0.854,0.356,1.473,0.356c0.488,0,0.903-0.083,1.246-0.248c0.342-0.164,0.619-0.378,0.83-0.642
			c0.21-0.264,0.362-0.557,0.455-0.88s0.139-0.643,0.139-0.959v-0.593H31.244z"/>
		<path fill="#FFFFFF" d="M36.048,14.33h1.779v1.442h0.04c0.119-0.25,0.277-0.478,0.475-0.682s0.418-0.379,0.662-0.524
			c0.244-0.145,0.511-0.26,0.801-0.346c0.29-0.085,0.58-0.128,0.87-0.128c0.29,0,0.553,0.039,0.791,0.118l-0.079,1.918
			c-0.145-0.04-0.29-0.073-0.435-0.1c-0.146-0.026-0.29-0.039-0.435-0.039c-0.87,0-1.535,0.244-1.997,0.731
			s-0.692,1.245-0.692,2.273v4.704h-1.779V14.33z"/>
		<path fill="#FFFFFF" d="M47.986,15.871h-2.549v4.25c0,0.264,0.006,0.524,0.02,0.781c0.013,0.257,0.063,0.487,0.148,0.691
			c0.085,0.205,0.217,0.369,0.395,0.494c0.178,0.126,0.438,0.188,0.781,0.188c0.211,0,0.428-0.021,0.652-0.06
			c0.224-0.04,0.428-0.112,0.613-0.218v1.621c-0.211,0.118-0.484,0.201-0.82,0.247s-0.598,0.069-0.781,0.069
			c-0.686,0-1.216-0.096-1.592-0.287c-0.375-0.19-0.652-0.438-0.83-0.741c-0.178-0.303-0.283-0.643-0.316-1.018
			c-0.033-0.376-0.049-0.754-0.049-1.137v-4.883h-2.056V14.33h2.056V11.7h1.779v2.63h2.549V15.871z"/>
		<path fill="#FFFFFF" d="M2.702,37.637c0,0.408,0.089,0.78,0.267,1.116s0.412,0.623,0.702,0.86s0.626,0.422,1.008,0.554
			c0.382,0.132,0.777,0.197,1.186,0.197c0.553,0,1.034-0.129,1.443-0.386c0.408-0.257,0.784-0.596,1.127-1.018l1.344,1.027
			c-0.988,1.279-2.372,1.918-4.151,1.918c-0.738,0-1.407-0.126-2.006-0.376s-1.107-0.596-1.522-1.037s-0.735-0.962-0.958-1.562
			c-0.225-0.6-0.336-1.249-0.336-1.947s0.122-1.348,0.366-1.947s0.58-1.12,1.008-1.562s0.939-0.787,1.532-1.038
			c0.593-0.25,1.239-0.375,1.938-0.375c0.83,0,1.532,0.145,2.105,0.435s1.044,0.669,1.413,1.137
			c0.369,0.468,0.636,0.995,0.801,1.581c0.165,0.587,0.247,1.183,0.247,1.789v0.633H2.702z M8.315,36.213
			c-0.014-0.395-0.076-0.757-0.188-1.087c-0.112-0.329-0.28-0.616-0.504-0.859c-0.224-0.244-0.504-0.436-0.84-0.573
			c-0.336-0.139-0.728-0.208-1.176-0.208c-0.435,0-0.834,0.082-1.196,0.247s-0.669,0.379-0.919,0.643
			c-0.25,0.264-0.445,0.557-0.583,0.88c-0.139,0.322-0.208,0.642-0.208,0.958H8.315z"/>
		<path fill="#FFFFFF" d="M12.091,26.725h1.779v14.944h-1.779V26.725z"/>
		<path fill="#FFFFFF" d="M17.645,37.637c0,0.408,0.089,0.78,0.267,1.116s0.412,0.623,0.702,0.86s0.626,0.422,1.008,0.554
			c0.382,0.132,0.777,0.197,1.186,0.197c0.553,0,1.034-0.129,1.443-0.386c0.408-0.257,0.784-0.596,1.127-1.018l1.344,1.027
			c-0.988,1.279-2.372,1.918-4.151,1.918c-0.738,0-1.407-0.126-2.006-0.376s-1.107-0.596-1.522-1.037s-0.735-0.962-0.958-1.562
			c-0.225-0.6-0.336-1.249-0.336-1.947s0.122-1.348,0.366-1.947s0.58-1.12,1.008-1.562s0.939-0.787,1.532-1.038
			c0.593-0.25,1.239-0.375,1.938-0.375c0.83,0,1.532,0.145,2.105,0.435s1.044,0.669,1.413,1.137
			c0.369,0.468,0.636,0.995,0.801,1.581c0.165,0.587,0.247,1.183,0.247,1.789v0.633H17.645z M23.259,36.213
			c-0.014-0.395-0.076-0.757-0.188-1.087c-0.112-0.329-0.28-0.616-0.504-0.859c-0.224-0.244-0.504-0.436-0.84-0.573
			c-0.336-0.139-0.728-0.208-1.176-0.208c-0.435,0-0.834,0.082-1.196,0.247s-0.669,0.379-0.919,0.643
			c-0.25,0.264-0.445,0.557-0.583,0.88c-0.139,0.322-0.208,0.642-0.208,0.958H23.259z"/>
		<path fill="#FFFFFF" d="M25.769,32.3h2.056l2.807,7.175L33.32,32.3h1.897l-3.677,9.369h-1.957L25.769,32.3z"/>
		<path fill="#FFFFFF" d="M36.424,33.446c0.5-0.462,1.08-0.808,1.739-1.038c0.659-0.23,1.318-0.346,1.977-0.346
			c0.685,0,1.275,0.086,1.769,0.257s0.899,0.402,1.215,0.691c0.317,0.29,0.55,0.623,0.702,0.998
			c0.151,0.376,0.228,0.769,0.228,1.177v4.783c0,0.33,0.007,0.633,0.021,0.909c0.012,0.277,0.032,0.541,0.059,0.791h-1.582
			c-0.04-0.475-0.059-0.949-0.059-1.423h-0.04c-0.396,0.605-0.863,1.034-1.403,1.284c-0.541,0.25-1.167,0.376-1.878,0.376
			c-0.435,0-0.85-0.06-1.246-0.178c-0.395-0.119-0.741-0.297-1.038-0.534s-0.531-0.53-0.702-0.88
			c-0.171-0.349-0.257-0.754-0.257-1.215c0-0.606,0.135-1.114,0.405-1.522c0.27-0.408,0.639-0.741,1.107-0.998
			c0.467-0.257,1.015-0.441,1.641-0.554c0.625-0.111,1.294-0.168,2.006-0.168h1.305v-0.396c0-0.237-0.046-0.475-0.139-0.712
			c-0.092-0.236-0.23-0.451-0.415-0.642c-0.185-0.191-0.415-0.343-0.692-0.455c-0.277-0.111-0.606-0.168-0.988-0.168
			c-0.343,0-0.643,0.033-0.899,0.099c-0.257,0.066-0.491,0.148-0.702,0.247c-0.211,0.099-0.402,0.215-0.573,0.346
			c-0.171,0.133-0.336,0.258-0.494,0.376L36.424,33.446z M41.444,37.162c-0.422,0-0.853,0.023-1.294,0.069
			c-0.442,0.046-0.844,0.135-1.206,0.267s-0.659,0.316-0.889,0.554c-0.231,0.237-0.346,0.54-0.346,0.909
			c0,0.54,0.181,0.929,0.543,1.166s0.854,0.356,1.473,0.356c0.488,0,0.903-0.083,1.246-0.248c0.342-0.164,0.619-0.378,0.83-0.642
			c0.21-0.264,0.362-0.557,0.455-0.88s0.139-0.643,0.139-0.959v-0.593H41.444z"/>
		<path fill="#FFFFFF" d="M51.268,33.841h-2.549v4.25c0,0.264,0.006,0.524,0.02,0.781c0.013,0.257,0.063,0.487,0.148,0.691
			c0.085,0.205,0.217,0.369,0.395,0.494c0.178,0.126,0.438,0.188,0.781,0.188c0.211,0,0.428-0.021,0.652-0.06
			c0.224-0.04,0.428-0.112,0.613-0.218v1.621c-0.211,0.118-0.484,0.201-0.82,0.247s-0.598,0.069-0.781,0.069
			c-0.686,0-1.216-0.096-1.592-0.287c-0.375-0.19-0.652-0.438-0.83-0.741c-0.178-0.303-0.283-0.643-0.316-1.018
			c-0.033-0.376-0.049-0.754-0.049-1.137v-4.883h-2.056V32.3h2.056v-2.63h1.779v2.63h2.549V33.841z"/>
		<path fill="#FFFFFF" d="M52.711,36.984c0-0.686,0.129-1.324,0.386-1.918c0.257-0.593,0.609-1.113,1.058-1.562
			c0.447-0.447,0.975-0.801,1.582-1.058c0.605-0.257,1.258-0.385,1.956-0.385s1.351,0.128,1.957,0.385s1.134,0.61,1.581,1.058
			c0.448,0.448,0.801,0.969,1.059,1.562c0.256,0.594,0.385,1.232,0.385,1.918s-0.129,1.327-0.385,1.927
			c-0.258,0.601-0.61,1.12-1.059,1.562c-0.447,0.442-0.975,0.791-1.581,1.048s-1.259,0.386-1.957,0.386s-1.351-0.129-1.956-0.386
			c-0.607-0.257-1.135-0.605-1.582-1.048c-0.448-0.441-0.801-0.961-1.058-1.562C52.84,38.312,52.711,37.67,52.711,36.984z
			 M54.609,36.984c0,0.475,0.072,0.912,0.217,1.314s0.35,0.744,0.613,1.027c0.264,0.284,0.586,0.508,0.969,0.673
			c0.381,0.164,0.811,0.247,1.284,0.247c0.475,0,0.903-0.083,1.285-0.247c0.382-0.165,0.704-0.389,0.968-0.673
			c0.264-0.283,0.469-0.625,0.613-1.027s0.218-0.84,0.218-1.314s-0.073-0.913-0.218-1.314c-0.145-0.402-0.35-0.745-0.613-1.028
			s-0.586-0.507-0.968-0.672s-0.811-0.247-1.285-0.247c-0.474,0-0.903,0.082-1.284,0.247c-0.383,0.165-0.705,0.389-0.969,0.672
			s-0.469,0.626-0.613,1.028C54.682,36.071,54.609,36.51,54.609,36.984z"/>
		<path fill="#FFFFFF" d="M64.512,32.3h1.779v1.442h0.039c0.119-0.25,0.277-0.478,0.475-0.682c0.198-0.204,0.418-0.379,0.662-0.524
			c0.244-0.145,0.512-0.26,0.801-0.346c0.29-0.085,0.58-0.128,0.87-0.128s0.554,0.039,0.79,0.118l-0.078,1.918
			c-0.146-0.04-0.291-0.073-0.436-0.1s-0.289-0.039-0.435-0.039c-0.87,0-1.535,0.244-1.997,0.731
			c-0.461,0.487-0.691,1.245-0.691,2.273v4.704h-1.779V32.3z"/>
	</g>
	<path fill-rule="evenodd" clip-rule="evenodd" fill="#41C363" d="M78.322,12.947c-3.421-0.006-6.186-2.792-6.178-6.223
		c0.01-3.418,2.802-6.182,6.232-6.168c3.402,0.013,6.163,2.796,6.158,6.204C84.531,10.183,81.749,12.954,78.322,12.947z
		 M78.117,3.821c-1.204,0.026-2.521,0.528-3.641,1.541c-0.275,0.249-0.344,0.57-0.174,0.778c0.181,0.221,0.469,0.193,0.775-0.073
		c0.059-0.051,0.115-0.104,0.176-0.152c1.283-1.041,2.73-1.398,4.348-1.039c0.918,0.205,1.699,0.659,2.373,1.31
		c0.217,0.209,0.47,0.255,0.68,0.018c0.195-0.22,0.165-0.474-0.046-0.691c-0.054-0.056-0.11-0.108-0.167-0.16
		C81.299,4.323,79.952,3.823,78.117,3.821z M78.455,6.044c-1.031,0.001-2.029,0.382-2.751,1.05c-0.298,0.276-0.36,0.559-0.144,0.765
		c0.258,0.248,0.502,0.153,0.75-0.056c1.328-1.133,3.021-1.121,4.318,0.021c0.313,0.274,0.577,0.3,0.77,0.057
		c0.229-0.289,0.096-0.524-0.138-0.738C80.467,6.415,79.531,6.049,78.455,6.044z M78.461,8.23c-0.594,0.02-1.13,0.203-1.581,0.606
		c-0.233,0.209-0.314,0.457-0.092,0.707c0.209,0.232,0.445,0.187,0.686,0.007c0.712-0.533,1.259-0.528,1.956,0.011
		c0.234,0.181,0.475,0.233,0.688,0.008c0.229-0.244,0.156-0.494-0.075-0.708C79.597,8.449,79.064,8.259,78.461,8.23z"/>
	<path fill-rule="evenodd" clip-rule="evenodd" fill="#41C363" d="M64.342,16.843c0,3.778,0,7.541,0,11.332
		c-2.686,0-5.373,0-8.088,0c0-3.765,0-7.539,0-11.332C58.947,16.843,61.634,16.843,64.342,16.843z M62.938,27.103
		c0-3.079,0-5.842,0-8.882c-1.992,0-3.352,0-5.313,0c0,3.07,0,5.824,0,8.882C59.602,27.103,60.953,27.103,62.938,27.103z"/>
	<path fill-rule="evenodd" clip-rule="evenodd" fill="#41C363" stroke="#41C363" stroke-width="0.6" stroke-miterlimit="10" d="
		M79.223,19.461c0,1.342,0.004,2.684,0,4.025c-0.009,2.667-2.043,4.707-4.703,4.718c-1.137,0.004-3.271,0.001-4.407,0
		c-0.451,0-0.704-0.189-0.715-0.526c-0.011-0.35,0.253-0.557,0.724-0.557c1.121-0.002,3.244,0.002,4.367-0.001
		c2.095-0.006,3.646-1.551,3.65-3.642c0.004-2.735,0-3.47,0-6.206c0-0.116-0.01-0.234,0.006-0.348
		c0.045-0.309,0.225-0.501,0.541-0.497c0.313,0.004,0.506,0.194,0.529,0.506c0.023,0.309,0.008,0.619,0.008,0.929
		C79.223,19.062,79.223,18.261,79.223,19.461z"/>
	<path fill-rule="evenodd" clip-rule="evenodd" fill="#41C363" stroke="#41C363" stroke-width="0.6" stroke-miterlimit="10" d="
		M62.94,5.893c1.445,0,3.89,0.003,5.335-0.003c0.284,0,0.516,0.075,0.63,0.349c0.151,0.36-0.108,0.722-0.536,0.735
		c-0.464,0.014-0.929,0.004-1.394,0.004c-2.335,0-5.671-0.001-8.006,0c-1.621,0-2.655,1.039-2.657,2.665
		c-0.001,0.348,0.011,0.697-0.006,1.044c-0.014,0.318-0.261,0.555-0.549,0.532c-0.311-0.025-0.52-0.205-0.521-0.518
		c-0.001-0.631-0.03-1.272,0.068-1.89c0.266-1.668,1.726-2.885,3.415-2.917c0.025,0,0.051-0.001,0.076-0.001
		C60.18,5.893,61.56,5.893,62.94,5.893z"/>
	<path fill-rule="evenodd" clip-rule="evenodd" fill="#41C363" stroke="#41C363" stroke-width="0.6" stroke-miterlimit="10" d="
		M70.055,15.96c-0.105-0.597-0.042-1.105,0.49-1.533c0.498-0.401,0.915-0.904,1.416-1.411c0.389,0.395,0.756,0.767,1.123,1.14
		c0.072,0.074,0.138,0.159,0.221,0.218c0.563,0.394,0.723,0.931,0.545,1.617c-0.464-0.483-0.927-0.964-1.389-1.446
		c-0.033,0.025-0.066,0.05-0.1,0.074c0,1.051,0,2.102,0,3.183c-0.264,0-0.5,0-0.777,0c0-1.054,0-2.115,0-3.279
		c-0.515,0.561-0.961,1.049-1.406,1.537C70.136,16.027,70.096,15.994,70.055,15.96z"/>
	<path fill-rule="evenodd" clip-rule="evenodd" fill="#41C363" stroke="#41C363" stroke-width="0.6" stroke-miterlimit="10" d="
		M73.865,21.504c0.105,0.594,0.047,1.103-0.484,1.532c-0.497,0.401-0.911,0.909-1.402,1.412c-0.314-0.314-0.604-0.603-0.893-0.891
		c-0.154-0.154-0.292-0.334-0.469-0.46c-0.557-0.402-0.723-0.934-0.553-1.596c0.458,0.467,0.926,0.945,1.393,1.421
		c0.037-0.024,0.076-0.049,0.113-0.073c0-1.06,0-2.121,0-3.199c0.27,0,0.496,0,0.764,0c0,1.064,0,2.126,0,3.248
		c0.502-0.53,0.954-1.01,1.408-1.49C73.783,21.44,73.822,21.471,73.865,21.504z"/>
	<g>
		<path fill-rule="evenodd" clip-rule="evenodd" fill="#FFFFFF" d="M53.219,13.803c2.063,0,4.098,0,6.159,0c0-1.932,0-2.462,0-4.396
			c0.365,0,1.442,0,1.824,0c0,1.91,0,2.449,0,4.39c2.075,0,4.108,0,6.173,0c0,4.677,0,9.994,0,14.672c-4.457,0-9.662,0-14.156,0
			C53.219,23.825,53.219,18.507,53.219,13.803z M61.047,27.099c1.727,0,3.239,0,4.916,0c0-3.95,0-7.876,0-11.8
			c-3.771,0-7.518,0-11.251,0c0,3.954,0,7.881,0,11.801c1.702,0,3.186,0,4.897,0c0-3.07,0-5.834,0-8.881c0.381,0,1.07,0,1.438,0
			C61.047,21.287,61.047,24.042,61.047,27.099z"/>
	</g>
</g>
</svg>
